<?xml version="1.0" encoding="UTF-8" standalone="no"?><svg xmlns="http://www.w3.org/2000/svg" xmlns:xlink="http://www.w3.org/1999/xlink" contentStyleType="text/css" height="540px" preserveAspectRatio="none" style="width:1049px;height:540px;background:#FFFFFF;" version="1.1" viewBox="0 0 1049 540" width="1049px" zoomAndPan="magnify"><defs/><g><rect fill="#F1F1F1" height="378.5781" rx="5" ry="5" style="stroke:#F1F1F1;stroke-width:1.5;" width="769" x="10" y="10"/><text fill="#000000" font-family="sans-serif" font-size="14" font-weight="bold" lengthAdjust="spacing" textLength="62" x="15" y="26.5332">$schema</text><text fill="#000000" font-family="sans-serif" font-size="14" lengthAdjust="spacing" textLength="291" x="168" y="26.5332">https://json-schema.org/draft/2019-09/schema</text><line style="stroke:#000000;stroke-width:1.0;" x1="163" x2="163" y1="10" y2="31.6094"/><line style="stroke:#000000;stroke-width:1.0;" x1="10" x2="779" y1="31.6094" y2="31.6094"/><text fill="#000000" font-family="sans-serif" font-size="14" font-weight="bold" lengthAdjust="spacing" textLength="21" x="15" y="48.1426">$id</text><text fill="#000000" font-family="sans-serif" font-size="14" lengthAdjust="spacing" textLength="606" x="168" y="48.1426">https://raw.githubusercontent.com/EbiEga/ega-metadata-schema/main/schemas/EGA.assay.json</text><line style="stroke:#000000;stroke-width:1.0;" x1="163" x2="163" y1="31.6094" y2="53.2188"/><line style="stroke:#000000;stroke-width:1.0;" x1="10" x2="779" y1="53.2188" y2="53.2188"/><text fill="#000000" font-family="sans-serif" font-size="14" font-weight="bold" lengthAdjust="spacing" textLength="30" x="15" y="69.752">type</text><text fill="#000000" font-family="sans-serif" font-size="14" lengthAdjust="spacing" textLength="38" x="168" y="69.752">object</text><line style="stroke:#000000;stroke-width:1.0;" x1="163" x2="163" y1="53.2188" y2="74.8281"/><line style="stroke:#000000;stroke-width:1.0;" x1="10" x2="779" y1="74.8281" y2="74.8281"/><text fill="#000000" font-family="sans-serif" font-size="14" font-weight="bold" lengthAdjust="spacing" textLength="27" x="15" y="91.3613">title</text><text fill="#000000" font-family="sans-serif" font-size="14" lengthAdjust="spacing" textLength="186" x="168" y="91.3613">EGA assay metadata schema</text><line style="stroke:#000000;stroke-width:1.0;" x1="163" x2="163" y1="74.8281" y2="96.4375"/><line style="stroke:#000000;stroke-width:1.0;" x1="10" x2="779" y1="96.4375" y2="96.4375"/><text fill="#000000" font-family="sans-serif" font-size="14" font-weight="bold" lengthAdjust="spacing" textLength="92" x="15" y="112.9707">meta:version</text><text fill="#000000" font-family="sans-serif" font-size="14" lengthAdjust="spacing" textLength="32" x="168" y="112.9707">0.0.0</text><line style="stroke:#000000;stroke-width:1.0;" x1="163" x2="163" y1="96.4375" y2="118.0469"/><line style="stroke:#000000;stroke-width:1.0;" x1="10" x2="779" y1="118.0469" y2="118.0469"/><text fill="#000000" font-family="sans-serif" font-size="14" font-weight="bold" lengthAdjust="spacing" textLength="48" x="15" y="134.5801">$async</text><text fill="#000000" font-family="sans-serif" font-size="14" lengthAdjust="spacing" textLength="41" x="168" y="134.5801">☑ true</text><line style="stroke:#000000;stroke-width:1.0;" x1="163" x2="163" y1="118.0469" y2="139.6563"/><line style="stroke:#000000;stroke-width:1.0;" x1="10" x2="779" y1="139.6563" y2="139.6563"/><text fill="#000000" font-family="sans-serif" font-size="14" font-weight="bold" lengthAdjust="spacing" textLength="80" x="15" y="156.1895">description</text><text fill="#000000" font-family="sans-serif" font-size="14" lengthAdjust="spacing" textLength="541" x="168" y="156.1895">Metadata schema used by the European Genome-phenome Archive (EGA) to validate</text><text fill="#000000" font-family="sans-serif" font-size="14" lengthAdjust="spacing" textLength="503" x="168" y="173.7988">its assay metadata object. This object is intended to contain metadata about the</text><text fill="#000000" font-family="sans-serif" font-size="14" lengthAdjust="spacing" textLength="436" x="168" y="191.4082">raw qualitative or quantitative test performed to determine any kind of</text><text fill="#000000" font-family="sans-serif" font-size="14" lengthAdjust="spacing" textLength="454" x="168" y="209.0176">biological property of a biological sample. It can be of different types: (1)</text><text fill="#000000" font-family="sans-serif" font-size="14" lengthAdjust="spacing" textLength="526" x="168" y="226.627">sequencing assay [EFO:0003740] (e.g. sequence CRAM or FastQ files); and an (2)</text><text fill="#000000" font-family="sans-serif" font-size="14" lengthAdjust="spacing" textLength="476" x="168" y="244.2363">array assay [EFO:0002696] (e.g. intensity CEL files). Further details can be</text><text fill="#000000" font-family="sans-serif" font-size="14" lengthAdjust="spacing" textLength="340" x="168" y="261.8457">found in the EGA-metadata-schema GitHub repository</text><text fill="#000000" font-family="sans-serif" font-size="14" lengthAdjust="spacing" textLength="468" x="168" y="279.4551">(https://github.com/EbiEga/ega-metadata-schema/tree/main/schemas) and</text><text fill="#000000" font-family="sans-serif" font-size="14" lengthAdjust="spacing" textLength="292" x="168" y="297.0645">EGA-archive website (https://ega-archive.org/)</text><line style="stroke:#000000;stroke-width:1.0;" x1="163" x2="163" y1="139.6563" y2="302.1406"/><line style="stroke:#000000;stroke-width:1.0;" x1="10" x2="779" y1="302.1406" y2="302.1406"/><text fill="#000000" font-family="sans-serif" font-size="14" font-weight="bold" lengthAdjust="spacing" textLength="61" x="15" y="318.6738">required</text><text fill="#000000" font-family="sans-serif" font-size="14" lengthAdjust="spacing" textLength="12" x="168" y="318.6738">   </text><line style="stroke:#000000;stroke-width:1.0;" x1="163" x2="163" y1="302.1406" y2="323.75"/><line style="stroke:#000000;stroke-width:1.0;" x1="10" x2="779" y1="323.75" y2="323.75"/><text fill="#000000" font-family="sans-serif" font-size="14" font-weight="bold" lengthAdjust="spacing" textLength="143" x="15" y="340.2832">additionalProperties</text><text fill="#000000" font-family="sans-serif" font-size="14" lengthAdjust="spacing" textLength="46" x="168" y="340.2832">☐ false</text><line style="stroke:#000000;stroke-width:1.0;" x1="163" x2="163" y1="323.75" y2="345.3594"/><line style="stroke:#000000;stroke-width:1.0;" x1="10" x2="779" y1="345.3594" y2="345.3594"/><text fill="#000000" font-family="sans-serif" font-size="14" font-weight="bold" lengthAdjust="spacing" textLength="74" x="15" y="361.8926">properties</text><text fill="#000000" font-family="sans-serif" font-size="14" lengthAdjust="spacing" textLength="12" x="168" y="361.8926">   </text><line style="stroke:#000000;stroke-width:1.0;" x1="163" x2="163" y1="345.3594" y2="366.9688"/><line style="stroke:#000000;stroke-width:1.0;" x1="10" x2="779" y1="366.9688" y2="366.9688"/><text fill="#000000" font-family="sans-serif" font-size="14" font-weight="bold" lengthAdjust="spacing" textLength="32" x="15" y="383.502">allOf</text><text fill="#000000" font-family="sans-serif" font-size="14" lengthAdjust="spacing" textLength="12" x="168" y="383.502">   </text><line style="stroke:#000000;stroke-width:1.0;" x1="163" x2="163" y1="366.9688" y2="388.5781"/><rect fill="none" height="378.5781" rx="5" ry="5" style="stroke:#000000;stroke-width:1.5;" width="769" x="10" y="10"/><rect fill="#F1F1F1" height="64.8281" rx="5" ry="5" style="stroke:#F1F1F1;stroke-width:1.5;" width="166" x="843.5" y="146"/><text fill="#000000" font-family="sans-serif" font-size="14" lengthAdjust="spacing" textLength="49" x="848.5" y="162.5332">objectId</text><line style="stroke:#000000;stroke-width:1.0;" x1="843.5" x2="1009.5" y1="167.6094" y2="167.6094"/><text fill="#000000" font-family="sans-serif" font-size="14" lengthAdjust="spacing" textLength="156" x="848.5" y="184.1426">assayTypeSpecifications</text><line style="stroke:#000000;stroke-width:1.0;" x1="843.5" x2="1009.5" y1="189.2188" y2="189.2188"/><text fill="#000000" font-family="sans-serif" font-size="14" lengthAdjust="spacing" textLength="67" x="848.5" y="205.752">assayFiles</text><rect fill="none" height="64.8281" rx="5" ry="5" style="stroke:#000000;stroke-width:1.5;" width="166" x="843.5" y="146"/><rect fill="#F1F1F1" height="216.0938" rx="5" ry="5" style="stroke:#F1F1F1;stroke-width:1.5;" width="221" x="816" y="229.5"/><text fill="#000000" font-family="sans-serif" font-size="14" font-weight="bold" lengthAdjust="spacing" textLength="57" x="821" y="246.0332">objectId</text><text fill="#000000" font-family="sans-serif" font-size="14" lengthAdjust="spacing" textLength="30" x="1002" y="246.0332">{ ... }</text><line style="stroke:#000000;stroke-width:1.0;" x1="997" x2="997" y1="229.5" y2="251.1094"/><line style="stroke:#000000;stroke-width:1.0;" x1="816" x2="1037" y1="251.1094" y2="251.1094"/><text fill="#000000" font-family="sans-serif" font-size="14" font-weight="bold" lengthAdjust="spacing" textLength="128" x="821" y="267.6426">schemaDescriptor</text><text fill="#000000" font-family="sans-serif" font-size="14" lengthAdjust="spacing" textLength="30" x="1002" y="267.6426">{ ... }</text><line style="stroke:#000000;stroke-width:1.0;" x1="997" x2="997" y1="251.1094" y2="272.7188"/><line style="stroke:#000000;stroke-width:1.0;" x1="816" x2="1037" y1="272.7188" y2="272.7188"/><text fill="#000000" font-family="sans-serif" font-size="14" font-weight="bold" lengthAdjust="spacing" textLength="74" x="821" y="289.252">objectTitle</text><text fill="#000000" font-family="sans-serif" font-size="14" lengthAdjust="spacing" textLength="30" x="1002" y="289.252">{ ... }</text><line style="stroke:#000000;stroke-width:1.0;" x1="997" x2="997" y1="272.7188" y2="294.3281"/><line style="stroke:#000000;stroke-width:1.0;" x1="816" x2="1037" y1="294.3281" y2="294.3281"/><text fill="#000000" font-family="sans-serif" font-size="14" font-weight="bold" lengthAdjust="spacing" textLength="125" x="821" y="310.8613">objectDescription</text><text fill="#000000" font-family="sans-serif" font-size="14" lengthAdjust="spacing" textLength="30" x="1002" y="310.8613">{ ... }</text><line style="stroke:#000000;stroke-width:1.0;" x1="997" x2="997" y1="294.3281" y2="315.9375"/><line style="stroke:#000000;stroke-width:1.0;" x1="816" x2="1037" y1="315.9375" y2="315.9375"/><text fill="#000000" font-family="sans-serif" font-size="14" font-weight="bold" lengthAdjust="spacing" textLength="87" x="821" y="332.4707">assayCenter</text><text fill="#000000" font-family="sans-serif" font-size="14" lengthAdjust="spacing" textLength="30" x="1002" y="332.4707">{ ... }</text><line style="stroke:#000000;stroke-width:1.0;" x1="997" x2="997" y1="315.9375" y2="337.5469"/><line style="stroke:#000000;stroke-width:1.0;" x1="816" x2="1037" y1="337.5469" y2="337.5469"/><text fill="#000000" font-family="sans-serif" font-size="14" font-weight="bold" lengthAdjust="spacing" textLength="71" x="821" y="354.0801">assayDate</text><text fill="#000000" font-family="sans-serif" font-size="14" lengthAdjust="spacing" textLength="30" x="1002" y="354.0801">{ ... }</text><line style="stroke:#000000;stroke-width:1.0;" x1="997" x2="997" y1="337.5469" y2="359.1563"/><line style="stroke:#000000;stroke-width:1.0;" x1="816" x2="1037" y1="359.1563" y2="359.1563"/><text fill="#000000" font-family="sans-serif" font-size="14" font-weight="bold" lengthAdjust="spacing" textLength="171" x="821" y="375.6895">assayTypeSpecifications</text><text fill="#000000" font-family="sans-serif" font-size="14" lengthAdjust="spacing" textLength="30" x="1002" y="375.6895">{ ... }</text><line style="stroke:#000000;stroke-width:1.0;" x1="997" x2="997" y1="359.1563" y2="380.7656"/><line style="stroke:#000000;stroke-width:1.0;" x1="816" x2="1037" y1="380.7656" y2="380.7656"/><text fill="#000000" font-family="sans-serif" font-size="14" font-weight="bold" lengthAdjust="spacing" textLength="135" x="821" y="397.2988">assayRelationships</text><text fill="#000000" font-family="sans-serif" font-size="14" lengthAdjust="spacing" textLength="30" x="1002" y="397.2988">{ ... }</text><line style="stroke:#000000;stroke-width:1.0;" x1="997" x2="997" y1="380.7656" y2="402.375"/><line style="stroke:#000000;stroke-width:1.0;" x1="816" x2="1037" y1="402.375" y2="402.375"/><text fill="#000000" font-family="sans-serif" font-size="14" font-weight="bold" lengthAdjust="spacing" textLength="73" x="821" y="418.9082">assayFiles</text><text fill="#000000" font-family="sans-serif" font-size="14" lengthAdjust="spacing" textLength="30" x="1002" y="418.9082">{ ... }</text><line style="stroke:#000000;stroke-width:1.0;" x1="997" x2="997" y1="402.375" y2="423.9844"/><line style="stroke:#000000;stroke-width:1.0;" x1="816" x2="1037" y1="423.9844" y2="423.9844"/><text fill="#000000" font-family="sans-serif" font-size="14" font-weight="bold" lengthAdjust="spacing" textLength="108" x="821" y="440.5176">assayAttributes</text><text fill="#000000" font-family="sans-serif" font-size="14" lengthAdjust="spacing" textLength="30" x="1002" y="440.5176">{ ... }</text><line style="stroke:#000000;stroke-width:1.0;" x1="997" x2="997" y1="423.9844" y2="445.5938"/><rect fill="none" height="216.0938" rx="5" ry="5" style="stroke:#000000;stroke-width:1.5;" width="221" x="816" y="229.5"/><rect fill="#F1F1F1" height="64.8281" rx="5" ry="5" style="stroke:#F1F1F1;stroke-width:1.5;" width="40" x="906.5" y="464"/><text fill="#000000" font-family="sans-serif" font-size="14" lengthAdjust="spacing" textLength="30" x="911.5" y="480.5332">{ ... }</text><line style="stroke:#000000;stroke-width:1.0;" x1="906.5" x2="946.5" y1="485.6094" y2="485.6094"/><text fill="#000000" font-family="sans-serif" font-size="14" lengthAdjust="spacing" textLength="30" x="911.5" y="502.1426">{ ... }</text><line style="stroke:#000000;stroke-width:1.0;" x1="906.5" x2="946.5" y1="507.2188" y2="507.2188"/><text fill="#000000" font-family="sans-serif" font-size="14" lengthAdjust="spacing" textLength="30" x="911.5" y="523.752">{ ... }</text><rect fill="none" height="64.8281" rx="5" ry="5" style="stroke:#000000;stroke-width:1.5;" width="40" x="906.5" y="464"/><path d="M767,268.5 L780,268.5 C806.6667,268.5 794.707,236.5536 816,220.5 C822.4985,215.6006 829.6361,211.2093 837.0569,207.2865 " fill="none" style="stroke:#000000;stroke-width:1.0;stroke-dasharray:3.0,3.0;"/><path d="M838.4457,210.0403 L839.1223,206.2449 L835.6682,204.5327 L843.9414,203.8145 L838.4457,210.0403 " fill="#000000" style="stroke:#000000;stroke-width:1.0;"/><ellipse cx="767" cy="268.5" fill="#000000" rx="3" ry="3" style="stroke:#000000;stroke-width:1.0;"/><path d="M767,337.5 L780,337.5 C789.3003,337.5 798.9337,337.5 808.6139,337.5 " fill="none" style="stroke:#000000;stroke-width:1.0;stroke-dasharray:3.0,3.0;"/><path d="M808.6139,340.6071 L810.9443,337.5 L808.6139,334.3929 L816.3817,337.5 L808.6139,340.6071 " fill="#000000" style="stroke:#000000;stroke-width:1.0;"/><ellipse cx="767" cy="337.5" fill="#000000" rx="3" ry="3" style="stroke:#000000;stroke-width:1.0;"/><path d="M767,371.5 L780,371.5 C820.2093,371.5 786.942,426.7075 816,454.5 C839.061,476.5567 874.8998,487.3309 899.358,492.3809 " fill="none" style="stroke:#000000;stroke-width:1.0;stroke-dasharray:3.0,3.0;"/><path d="M898.7798,495.3851 L901.6111,492.8146 L899.9362,489.3767 L906.8684,493.8264 L898.7798,495.3851 " fill="#000000" style="stroke:#000000;stroke-width:1.0;"/><ellipse cx="767" cy="371.5" fill="#000000" rx="3" ry="3" style="stroke:#000000;stroke-width:1.0;"/><!--SRC=[XLLDSzD03BtxLsWw798POYS12ZKNGlC1fPcMDlJIzh2sPMV1tZMxSfXCf_yThJ_Q1af89fDO-_GaFKcR3vQ4eUzMAy-xyu1V1ozilCP278Hmi2OgRHW4xdpGc7rjiY0n8gLWF1mT3OP7GOj_sRhBvAch4R_yJDAwYYgB9jQAK94VwoAOHNAMYG0pCIYGH298j362GaZLqjfWjfZumbgnzLqQNHZQbkZYwEWxnlHWbPJNPdQ2sWawRjXDqvd33HehcPCTXZw_7seGTgjYDfEfiBKbQ6CZIshnorrQuEeIYBP0QuHPPNI9Gi42bIvmKAxhRvYOU2qt23tEhW-aOIDooIG8DpTAalqpuwOs7rPhQTi7u5_IQPXmE6PmWh9OZpuYqXNLMJ0dYmy_Amv2WbnWRToZekwPq1AKQ59jYeOlGK9JI8KWr1P-I9M0JXrL97MkCncB74fNdQ6jEn7mvC2AeipHXyy4CLSVeKCaCatHSDF1jSo6q1lr7Q75dnMgMAgiBVjwDZyBXyFXgxUlXxVGGp_peGKX75zCbYxzkR3q5LAPe-s_vnmJ_a1lN3CAOvXcbsnyU7JOaTMwMSc97yzEMmuVvfLXjOohNCZSTfapNwehvcTnwvuk9d-EAImaVQeYC5XgfjLcwxnwtUGtK_-_KIU3k3Fl_Reg9d8HHJinlp3Y23mv7RcZQW_hZUntesjOCMdGxU1rRQcjpV1yJbfKRQk5Md5FBakCPSeTTBDj_uBCdL07jV6s3IAIH3gmoC-RMP2C224LkUtMfNnwSFTC9hn3T-3xFjm_ZTY8C6rtJPj_m1gMLRVj_qHCTvVs6LnTuZ6F9vfzY2blwRxpPtJSWxx0l06jPRaNs6Y_1p0XCZAgQ1TLW-wxPkNvMRex3i-mxJ4rhVVklGzyxJH_5USvtoBVbgVGtg0myiV3yIj_rBki59pm2esFO3GEtxmBtnp2Oha2TzptUelpKx2wChpIYRHDxkpVzqx4Hi15nNTJWI6SbQXEfbyw0ypKHXgj2kwJTtArV0GSlXvyb0INQ3WJk5fwKqn5bHDxn3hXooM4Rwlvu9rtAbHMYOovKNd7lDbajY4iFlu6]--></g></svg>