<?xml version="1.0" encoding="UTF-8" standalone="no"?><svg xmlns="http://www.w3.org/2000/svg" xmlns:xlink="http://www.w3.org/1999/xlink" contentStyleType="text/css" height="529px" preserveAspectRatio="none" style="width:1144px;height:529px;background:#FFFFFF;" version="1.1" viewBox="0 0 1144 529" width="1144px" zoomAndPan="magnify"><defs/><g><rect fill="#F1F1F1" height="347.3594" rx="5" ry="5" style="stroke:#F1F1F1;stroke-width:1.5;" width="801" x="10" y="61.5"/><text fill="#000000" font-family="sans-serif" font-size="14" font-weight="bold" lengthAdjust="spacing" textLength="62" x="15" y="78.0332">$schema</text><text fill="#000000" font-family="sans-serif" font-size="14" lengthAdjust="spacing" textLength="291" x="168" y="78.0332">https://json-schema.org/draft/2019-09/schema</text><line style="stroke:#000000;stroke-width:1.0;" x1="163" x2="163" y1="61.5" y2="83.1094"/><line style="stroke:#000000;stroke-width:1.0;" x1="10" x2="811" y1="83.1094" y2="83.1094"/><text fill="#000000" font-family="sans-serif" font-size="14" font-weight="bold" lengthAdjust="spacing" textLength="21" x="15" y="99.6426">$id</text><text fill="#000000" font-family="sans-serif" font-size="14" lengthAdjust="spacing" textLength="638" x="168" y="99.6426">https://raw.githubusercontent.com/EbiEga/ega-metadata-schema/main/schemas/EGA.experiment.json</text><line style="stroke:#000000;stroke-width:1.0;" x1="163" x2="163" y1="83.1094" y2="104.7188"/><line style="stroke:#000000;stroke-width:1.0;" x1="10" x2="811" y1="104.7188" y2="104.7188"/><text fill="#000000" font-family="sans-serif" font-size="14" font-weight="bold" lengthAdjust="spacing" textLength="30" x="15" y="121.252">type</text><text fill="#000000" font-family="sans-serif" font-size="14" lengthAdjust="spacing" textLength="38" x="168" y="121.252">object</text><line style="stroke:#000000;stroke-width:1.0;" x1="163" x2="163" y1="104.7188" y2="126.3281"/><line style="stroke:#000000;stroke-width:1.0;" x1="10" x2="811" y1="126.3281" y2="126.3281"/><text fill="#000000" font-family="sans-serif" font-size="14" font-weight="bold" lengthAdjust="spacing" textLength="27" x="15" y="142.8613">title</text><text fill="#000000" font-family="sans-serif" font-size="14" lengthAdjust="spacing" textLength="219" x="168" y="142.8613">EGA Experiment metadata schema</text><line style="stroke:#000000;stroke-width:1.0;" x1="163" x2="163" y1="126.3281" y2="147.9375"/><line style="stroke:#000000;stroke-width:1.0;" x1="10" x2="811" y1="147.9375" y2="147.9375"/><text fill="#000000" font-family="sans-serif" font-size="14" font-weight="bold" lengthAdjust="spacing" textLength="92" x="15" y="164.4707">meta:version</text><text fill="#000000" font-family="sans-serif" font-size="14" lengthAdjust="spacing" textLength="32" x="168" y="164.4707">0.0.0</text><line style="stroke:#000000;stroke-width:1.0;" x1="163" x2="163" y1="147.9375" y2="169.5469"/><line style="stroke:#000000;stroke-width:1.0;" x1="10" x2="811" y1="169.5469" y2="169.5469"/><text fill="#000000" font-family="sans-serif" font-size="14" font-weight="bold" lengthAdjust="spacing" textLength="48" x="15" y="186.0801">$async</text><text fill="#000000" font-family="sans-serif" font-size="14" lengthAdjust="spacing" textLength="41" x="168" y="186.0801">☑ true</text><line style="stroke:#000000;stroke-width:1.0;" x1="163" x2="163" y1="169.5469" y2="191.1563"/><line style="stroke:#000000;stroke-width:1.0;" x1="10" x2="811" y1="191.1563" y2="191.1563"/><text fill="#000000" font-family="sans-serif" font-size="14" font-weight="bold" lengthAdjust="spacing" textLength="80" x="15" y="207.6895">description</text><text fill="#000000" font-family="sans-serif" font-size="14" lengthAdjust="spacing" textLength="541" x="168" y="207.6895">Metadata schema used by the European Genome-phenome Archive (EGA) to validate</text><text fill="#000000" font-family="sans-serif" font-size="14" lengthAdjust="spacing" textLength="473" x="168" y="225.2988">its experiment metadata object. An experiment is considered a planned and</text><text fill="#000000" font-family="sans-serif" font-size="14" lengthAdjust="spacing" textLength="501" x="168" y="242.9082">intentionally designed process performed as part of a study. Further details can</text><text fill="#000000" font-family="sans-serif" font-size="14" lengthAdjust="spacing" textLength="360" x="168" y="260.5176">be found in the EGA-metadata-schema GitHub repository</text><text fill="#000000" font-family="sans-serif" font-size="14" lengthAdjust="spacing" textLength="468" x="168" y="278.127">(https://github.com/EbiEga/ega-metadata-schema/tree/main/schemas) and</text><text fill="#000000" font-family="sans-serif" font-size="14" lengthAdjust="spacing" textLength="292" x="168" y="295.7363">EGA-archive website (https://ega-archive.org/)</text><line style="stroke:#000000;stroke-width:1.0;" x1="163" x2="163" y1="191.1563" y2="300.8125"/><line style="stroke:#000000;stroke-width:1.0;" x1="10" x2="811" y1="300.8125" y2="300.8125"/><text fill="#000000" font-family="sans-serif" font-size="14" font-weight="bold" lengthAdjust="spacing" textLength="61" x="15" y="317.3457">required</text><text fill="#000000" font-family="sans-serif" font-size="14" lengthAdjust="spacing" textLength="12" x="168" y="317.3457">   </text><line style="stroke:#000000;stroke-width:1.0;" x1="163" x2="163" y1="300.8125" y2="322.4219"/><line style="stroke:#000000;stroke-width:1.0;" x1="10" x2="811" y1="322.4219" y2="322.4219"/><text fill="#000000" font-family="sans-serif" font-size="14" font-weight="bold" lengthAdjust="spacing" textLength="143" x="15" y="338.9551">additionalProperties</text><text fill="#000000" font-family="sans-serif" font-size="14" lengthAdjust="spacing" textLength="46" x="168" y="338.9551">☐ false</text><line style="stroke:#000000;stroke-width:1.0;" x1="163" x2="163" y1="322.4219" y2="344.0313"/><rect fill="#CCFF02" height="21.6094" rx="2" ry="2" style="stroke:#CCFF02;stroke-width:1.0;" width="799" x="11.5" y="344.0313"/><line style="stroke:#000000;stroke-width:1.0;" x1="10" x2="811" y1="344.0313" y2="344.0313"/><text fill="#000000" font-family="sans-serif" font-size="14" font-weight="bold" lengthAdjust="spacing" textLength="74" x="15" y="360.5645">properties</text><text fill="#000000" font-family="sans-serif" font-size="14" lengthAdjust="spacing" textLength="12" x="168" y="360.5645">   </text><line style="stroke:#000000;stroke-width:1.0;" x1="163" x2="163" y1="344.0313" y2="365.6406"/><line style="stroke:#000000;stroke-width:1.0;" x1="10" x2="811" y1="365.6406" y2="365.6406"/><text fill="#000000" font-family="sans-serif" font-size="14" font-weight="bold" lengthAdjust="spacing" textLength="43" x="15" y="382.1738">oneOf</text><text fill="#000000" font-family="sans-serif" font-size="14" lengthAdjust="spacing" textLength="12" x="168" y="382.1738">   </text><line style="stroke:#000000;stroke-width:1.0;" x1="163" x2="163" y1="365.6406" y2="387.25"/><rect fill="#CCFF02" height="21.6094" rx="2" ry="2" style="stroke:#CCFF02;stroke-width:1.0;" width="799" x="11.5" y="387.25"/><line style="stroke:#000000;stroke-width:1.0;" x1="10" x2="811" y1="387.25" y2="387.25"/><text fill="#000000" font-family="sans-serif" font-size="14" font-weight="bold" lengthAdjust="spacing" textLength="40" x="15" y="403.7832">anyOf</text><text fill="#000000" font-family="sans-serif" font-size="14" lengthAdjust="spacing" textLength="12" x="168" y="403.7832">   </text><line style="stroke:#000000;stroke-width:1.0;" x1="163" x2="163" y1="387.25" y2="408.8594"/><rect fill="none" height="347.3594" rx="5" ry="5" style="stroke:#000000;stroke-width:1.5;" width="801" x="10" y="61.5"/><rect fill="#F1F1F1" height="108.0469" rx="5" ry="5" style="stroke:#F1F1F1;stroke-width:1.5;" width="218" x="881" y="10"/><text fill="#000000" font-family="sans-serif" font-size="14" lengthAdjust="spacing" textLength="49" x="886" y="26.5332">objectId</text><line style="stroke:#000000;stroke-width:1.0;" x1="881" x2="1099" y1="31.6094" y2="31.6094"/><text fill="#000000" font-family="sans-serif" font-size="14" lengthAdjust="spacing" textLength="111" x="886" y="48.1426">assayTechnology</text><line style="stroke:#000000;stroke-width:1.0;" x1="881" x2="1099" y1="53.2188" y2="53.2188"/><text fill="#000000" font-family="sans-serif" font-size="14" lengthAdjust="spacing" textLength="69" x="886" y="69.752">assayType</text><line style="stroke:#000000;stroke-width:1.0;" x1="881" x2="1099" y1="74.8281" y2="74.8281"/><text fill="#000000" font-family="sans-serif" font-size="14" lengthAdjust="spacing" textLength="208" x="886" y="91.3613">assayedBiologicalMacromolecule</text><line style="stroke:#000000;stroke-width:1.0;" x1="881" x2="1099" y1="96.4375" y2="96.4375"/><text fill="#000000" font-family="sans-serif" font-size="14" lengthAdjust="spacing" textLength="188" x="886" y="112.9707">experimentTypeSpecifications</text><rect fill="none" height="108.0469" rx="5" ry="5" style="stroke:#000000;stroke-width:1.5;" width="218" x="881" y="10"/><rect fill="#F1F1F1" height="259.3125" rx="5" ry="5" style="stroke:#F1F1F1;stroke-width:1.5;" width="284" x="848" y="136.5"/><text fill="#000000" font-family="sans-serif" font-size="14" font-weight="bold" lengthAdjust="spacing" textLength="57" x="853" y="153.0332">objectId</text><text fill="#000000" font-family="sans-serif" font-size="14" lengthAdjust="spacing" textLength="30" x="1097" y="153.0332">{ ... }</text><line style="stroke:#000000;stroke-width:1.0;" x1="1092" x2="1092" y1="136.5" y2="158.1094"/><line style="stroke:#000000;stroke-width:1.0;" x1="848" x2="1132" y1="158.1094" y2="158.1094"/><text fill="#000000" font-family="sans-serif" font-size="14" font-weight="bold" lengthAdjust="spacing" textLength="128" x="853" y="174.6426">schemaDescriptor</text><text fill="#000000" font-family="sans-serif" font-size="14" lengthAdjust="spacing" textLength="30" x="1097" y="174.6426">{ ... }</text><line style="stroke:#000000;stroke-width:1.0;" x1="1092" x2="1092" y1="158.1094" y2="179.7188"/><line style="stroke:#000000;stroke-width:1.0;" x1="848" x2="1132" y1="179.7188" y2="179.7188"/><text fill="#000000" font-family="sans-serif" font-size="14" font-weight="bold" lengthAdjust="spacing" textLength="74" x="853" y="196.252">objectTitle</text><text fill="#000000" font-family="sans-serif" font-size="14" lengthAdjust="spacing" textLength="30" x="1097" y="196.252">{ ... }</text><line style="stroke:#000000;stroke-width:1.0;" x1="1092" x2="1092" y1="179.7188" y2="201.3281"/><line style="stroke:#000000;stroke-width:1.0;" x1="848" x2="1132" y1="201.3281" y2="201.3281"/><text fill="#000000" font-family="sans-serif" font-size="14" font-weight="bold" lengthAdjust="spacing" textLength="125" x="853" y="217.8613">objectDescription</text><text fill="#000000" font-family="sans-serif" font-size="14" lengthAdjust="spacing" textLength="30" x="1097" y="217.8613">{ ... }</text><line style="stroke:#000000;stroke-width:1.0;" x1="1092" x2="1092" y1="201.3281" y2="222.9375"/><line style="stroke:#000000;stroke-width:1.0;" x1="848" x2="1132" y1="222.9375" y2="222.9375"/><text fill="#000000" font-family="sans-serif" font-size="14" font-weight="bold" lengthAdjust="spacing" textLength="89" x="853" y="239.4707">targetedLoci</text><text fill="#000000" font-family="sans-serif" font-size="14" lengthAdjust="spacing" textLength="30" x="1097" y="239.4707">{ ... }</text><line style="stroke:#000000;stroke-width:1.0;" x1="1092" x2="1092" y1="222.9375" y2="244.5469"/><line style="stroke:#000000;stroke-width:1.0;" x1="848" x2="1132" y1="244.5469" y2="244.5469"/><text fill="#000000" font-family="sans-serif" font-size="14" font-weight="bold" lengthAdjust="spacing" textLength="120" x="853" y="261.0801">assayTechnology</text><text fill="#000000" font-family="sans-serif" font-size="14" lengthAdjust="spacing" textLength="30" x="1097" y="261.0801">{ ... }</text><line style="stroke:#000000;stroke-width:1.0;" x1="1092" x2="1092" y1="244.5469" y2="266.1563"/><rect fill="#CCFF02" height="21.6094" rx="2" ry="2" style="stroke:#CCFF02;stroke-width:1.0;" width="282" x="849.5" y="266.1563"/><line style="stroke:#000000;stroke-width:1.0;" x1="848" x2="1132" y1="266.1563" y2="266.1563"/><text fill="#000000" font-family="sans-serif" font-size="14" font-weight="bold" lengthAdjust="spacing" textLength="72" x="853" y="282.6895">assayType</text><text fill="#000000" font-family="sans-serif" font-size="14" lengthAdjust="spacing" textLength="30" x="1097" y="282.6895">{ ... }</text><line style="stroke:#000000;stroke-width:1.0;" x1="1092" x2="1092" y1="266.1563" y2="287.7656"/><rect fill="#CCFF02" height="21.6094" rx="2" ry="2" style="stroke:#CCFF02;stroke-width:1.0;" width="282" x="849.5" y="287.7656"/><line style="stroke:#000000;stroke-width:1.0;" x1="848" x2="1132" y1="287.7656" y2="287.7656"/><text fill="#000000" font-family="sans-serif" font-size="14" font-weight="bold" lengthAdjust="spacing" textLength="234" x="853" y="304.2988">assayedBiologicalMacromolecule</text><text fill="#000000" font-family="sans-serif" font-size="14" lengthAdjust="spacing" textLength="30" x="1097" y="304.2988">{ ... }</text><line style="stroke:#000000;stroke-width:1.0;" x1="1092" x2="1092" y1="287.7656" y2="309.375"/><line style="stroke:#000000;stroke-width:1.0;" x1="848" x2="1132" y1="309.375" y2="309.375"/><text fill="#000000" font-family="sans-serif" font-size="14" font-weight="bold" lengthAdjust="spacing" textLength="133" x="853" y="325.9082">typesOfOutputData</text><text fill="#000000" font-family="sans-serif" font-size="14" lengthAdjust="spacing" textLength="30" x="1097" y="325.9082">{ ... }</text><line style="stroke:#000000;stroke-width:1.0;" x1="1092" x2="1092" y1="309.375" y2="330.9844"/><line style="stroke:#000000;stroke-width:1.0;" x1="848" x2="1132" y1="330.9844" y2="330.9844"/><text fill="#000000" font-family="sans-serif" font-size="14" font-weight="bold" lengthAdjust="spacing" textLength="212" x="853" y="347.5176">experimentTypeSpecifications</text><text fill="#000000" font-family="sans-serif" font-size="14" lengthAdjust="spacing" textLength="30" x="1097" y="347.5176">{ ... }</text><line style="stroke:#000000;stroke-width:1.0;" x1="1092" x2="1092" y1="330.9844" y2="352.5938"/><line style="stroke:#000000;stroke-width:1.0;" x1="848" x2="1132" y1="352.5938" y2="352.5938"/><text fill="#000000" font-family="sans-serif" font-size="14" font-weight="bold" lengthAdjust="spacing" textLength="176" x="853" y="369.127">experimentRelationships</text><text fill="#000000" font-family="sans-serif" font-size="14" lengthAdjust="spacing" textLength="30" x="1097" y="369.127">{ ... }</text><line style="stroke:#000000;stroke-width:1.0;" x1="1092" x2="1092" y1="352.5938" y2="374.2031"/><line style="stroke:#000000;stroke-width:1.0;" x1="848" x2="1132" y1="374.2031" y2="374.2031"/><text fill="#000000" font-family="sans-serif" font-size="14" font-weight="bold" lengthAdjust="spacing" textLength="149" x="853" y="390.7363">experimentAttributes</text><text fill="#000000" font-family="sans-serif" font-size="14" lengthAdjust="spacing" textLength="30" x="1097" y="390.7363">{ ... }</text><line style="stroke:#000000;stroke-width:1.0;" x1="1092" x2="1092" y1="374.2031" y2="395.8125"/><rect fill="none" height="259.3125" rx="5" ry="5" style="stroke:#000000;stroke-width:1.5;" width="284" x="848" y="136.5"/><rect fill="#F1F1F1" height="43.2188" rx="5" ry="5" style="stroke:#F1F1F1;stroke-width:1.5;" width="40" x="970" y="413.5"/><text fill="#000000" font-family="sans-serif" font-size="14" lengthAdjust="spacing" textLength="30" x="975" y="430.0332">{ ... }</text><line style="stroke:#000000;stroke-width:1.0;" x1="970" x2="1010" y1="435.1094" y2="435.1094"/><text fill="#000000" font-family="sans-serif" font-size="14" lengthAdjust="spacing" textLength="30" x="975" y="451.6426">{ ... }</text><rect fill="none" height="43.2188" rx="5" ry="5" style="stroke:#000000;stroke-width:1.5;" width="40" x="970" y="413.5"/><rect fill="#F1F1F1" height="43.2188" rx="5" ry="5" style="stroke:#F1F1F1;stroke-width:1.5;" width="40" x="970" y="474.5"/><rect fill="#CCFF02" height="21.6094" rx="2" ry="2" style="stroke:#CCFF02;stroke-width:1.0;" width="38" x="971.5" y="474.5"/><text fill="#000000" font-family="sans-serif" font-size="14" lengthAdjust="spacing" textLength="30" x="975" y="491.0332">{ ... }</text><rect fill="#CCFF02" height="21.6094" rx="2" ry="2" style="stroke:#CCFF02;stroke-width:1.0;" width="38" x="971.5" y="496.1094"/><line style="stroke:#000000;stroke-width:1.0;" x1="970" x2="1010" y1="496.1094" y2="496.1094"/><text fill="#000000" font-family="sans-serif" font-size="14" lengthAdjust="spacing" textLength="30" x="975" y="512.6426">{ ... }</text><rect fill="none" height="43.2188" rx="5" ry="5" style="stroke:#000000;stroke-width:1.5;" width="40" x="970" y="474.5"/><path d="M799,278 L812,278 C880.992,278 803.9257,180.0788 848,127 C855.611,117.8341 864.8257,109.9538 874.8611,103.1888 " fill="none" style="stroke:#000000;stroke-width:1.0;stroke-dasharray:3.0,3.0;"/><path d="M876.489,105.7278 L876.7654,101.9679 L873.2333,100.6497 L881.2086,99.1191 L876.489,105.7278 " fill="#000000" style="stroke:#000000;stroke-width:1.0;"/><ellipse cx="799" cy="278" fill="#000000" rx="3" ry="3" style="stroke:#000000;stroke-width:1.0;"/><path d="M799,336 L812,336 C821.6349,336 831.3718,335.0964 841.063,333.4945 " fill="none" style="stroke:#000000;stroke-width:1.0;stroke-dasharray:3.0,3.0;"/><path d="M841.6061,336.4543 L843.2829,333.0872 L840.52,330.5346 L848.4627,332.1368 L841.6061,336.4543 " fill="#000000" style="stroke:#000000;stroke-width:1.0;"/><ellipse cx="799" cy="336" fill="#000000" rx="3" ry="3" style="stroke:#000000;stroke-width:1.0;"/><path d="M799,365 L812,365 C835.9176,365 827.285,393.0443 848,405 C884.1373,425.8568 932.972,432.2774 962.7994,434.2151 " fill="none" style="stroke:#000000;stroke-width:1.0;stroke-dasharray:3.0,3.0;"/><path d="M962.6317,437.2225 L965.0549,434.3409 L962.9671,431.2078 L970.3177,434.6343 L962.6317,437.2225 " fill="#000000" style="stroke:#000000;stroke-width:1.0;"/><ellipse cx="799" cy="365" fill="#000000" rx="3" ry="3" style="stroke:#000000;stroke-width:1.0;"/><path d="M799,394 L812,394 C847.7771,394 819.6933,444.1201 848,466 C881.3768,491.7989 931.8801,496.6573 962.6607,496.9485 " fill="none" style="stroke:#000000;stroke-width:1.0;stroke-dasharray:3.0,3.0;"/><path d="M962.6686,500.0497 L964.9866,496.9426 L962.6528,493.8472 L970.4137,496.9288 L962.6686,500.0497 " fill="#000000" style="stroke:#000000;stroke-width:1.0;"/><ellipse cx="799" cy="394" fill="#000000" rx="3" ry="3" style="stroke:#000000;stroke-width:1.0;"/><!--SRC=[lLTRSzfM47xNhzYXVJ0pGGBQP6AUWWkXTStO4pjvQVfma5RIoKZdgET2gl7ultUFBWPS54ADQu-nsSktjsyN-PqsJ9alMWhlXvGdQKO_1dg5aWKgmr7t880UqvgLTsM1rRidIeCg_otg7VJ7w8BBJ2OyPDcIXKhcCiFGPjyDoaHv7LVQOVNAutsUBnFBf2WwentJcGtmw7yiOdJQ8hPCleys_ubSps3KwSYufw6TH3d4rYFPV7hol_Ww7TwXexVicMjvsgtkNAz3Etxa3JZzoNZn8tJuyXnzcvvvp4vx2ptltWFwwlsemnHprfj0BpMcq9CWS9-VWrhiIvK4aMAn2SR3qVbWU1uqzgyQTnvjkohsrK-uIUtAQbIX50Q5yKEP1_CLdoSim8GDSZGiOeOrCOASST70wc2-cFhuDwN9S-VgScbZ6LS71PEhBnYQHoatMIKcJvW_Ua8R1NOJTkB96fNc14nUGv- -7wjXkXGXYOsosCWYrA7YXMdibxkmG7L6i2g19W1pwnhC12nGo1m7HLhzXgaAKxv6EACK-s0ah5d62GJXysV1ZGRSatPTfGzJiQtc6gYhcaUeA2w38cD2kBz4L85L3QTKMPQLGAdpn6bfy25g3GGJIvKxUtf3ZqeWOmBHnaQb3- -jeYeKkHd6Cmf4bH3c2Y6Mbl2vgAjSJ9-E41RS_6fNeB2GcXkfIkTurhAYPiGX6XY5kCE5VbkLYyYQ7dx55KMWNhRW3gfHLcpjjyDK-9Vbr2MQsX-Lf9BMRQL7W5SRMRqb6AR2tORotof7lAV2xbEoPRcPdCEuBJ3aCJcu2T4EEfC_csnP5F5wS3URBPr0p3BTCh7OLjplAOdeUG- -xyF3TWvrDsSDZQNgCAjHxjfjwhIOxUx37Zjw1a_GO7GbGzvXyhJZtx9gjhvBtps7Zkm8Jr_7rzOKrio8VnrstnpT8PSFcDMMAIyEMq-DKNnb3UwOLfOFpUobG3huEqpU0xdZ-iYiwhFYE5VlmNk78gh-a_9kwCQOZyihQCucZFpnSFoJFpgxjG8kwKgCps4qdhn-Etdz1XRBEt3gldUskBa2BQqA4IAkwnh9l-zTiZM33vOkLOuJk2vGNCv-RmKm5skkf72TyIu_BJS6RtuUN703jwWe4_Yqz6OOCviPyWXbn4KoWOztxmTllIic4iiImaRX_KB7owXo0ekBVm00]--></g></svg>