<?xml version="1.0" encoding="UTF-8" standalone="no"?><svg xmlns="http://www.w3.org/2000/svg" xmlns:xlink="http://www.w3.org/1999/xlink" contentStyleType="text/css" height="442px" preserveAspectRatio="none" style="width:2189px;height:442px;background:#FFFFFF;" version="1.1" viewBox="0 0 2189 442" width="2189px" zoomAndPan="magnify"><defs/><g><rect fill="#F1F1F1" height="21.6094" rx="5" ry="5" style="stroke:#F1F1F1;stroke-width:1.5;" width="62" x="10" y="180"/><text fill="#000000" font-family="sans-serif" font-size="14" font-weight="bold" lengthAdjust="spacing" textLength="30" x="15" y="196.5332">data</text><text fill="#000000" font-family="sans-serif" font-size="14" lengthAdjust="spacing" textLength="12" x="55" y="196.5332">   </text><line style="stroke:#000000;stroke-width:1.0;" x1="50" x2="50" y1="180" y2="201.6094"/><rect fill="none" height="21.6094" rx="5" ry="5" style="stroke:#000000;stroke-width:1.5;" width="62" x="10" y="180"/><rect fill="#F1F1F1" height="21.6094" rx="5" ry="5" style="stroke:#F1F1F1;stroke-width:1.5;" width="112" x="109" y="180"/><text fill="#000000" font-family="sans-serif" font-size="14" font-weight="bold" lengthAdjust="spacing" textLength="80" x="114" y="196.5332">objectArray</text><text fill="#000000" font-family="sans-serif" font-size="14" lengthAdjust="spacing" textLength="12" x="204" y="196.5332">   </text><line style="stroke:#000000;stroke-width:1.0;" x1="199" x2="199" y1="180" y2="201.6094"/><rect fill="none" height="21.6094" rx="5" ry="5" style="stroke:#000000;stroke-width:1.5;" width="112" x="109" y="180"/><rect fill="#F1F1F1" height="64.8281" rx="5" ry="5" style="stroke:#F1F1F1;stroke-width:1.5;" width="22" x="258" y="158.5"/><text fill="#000000" font-family="sans-serif" font-size="14" lengthAdjust="spacing" textLength="12" x="263" y="175.0332">   </text><line style="stroke:#000000;stroke-width:1.0;" x1="258" x2="280" y1="180.1094" y2="180.1094"/><text fill="#000000" font-family="sans-serif" font-size="14" lengthAdjust="spacing" textLength="12" x="263" y="196.6426">   </text><line style="stroke:#000000;stroke-width:1.0;" x1="258" x2="280" y1="201.7188" y2="201.7188"/><text fill="#000000" font-family="sans-serif" font-size="14" lengthAdjust="spacing" textLength="12" x="263" y="218.252">   </text><rect fill="none" height="64.8281" rx="5" ry="5" style="stroke:#000000;stroke-width:1.5;" width="22" x="258" y="158.5"/><rect fill="#F1F1F1" height="43.2188" rx="5" ry="5" style="stroke:#F1F1F1;stroke-width:1.5;" width="197" x="319" y="60.5"/><text fill="#000000" font-family="sans-serif" font-size="14" font-weight="bold" lengthAdjust="spacing" textLength="57" x="324" y="77.0332">objectId</text><text fill="#000000" font-family="sans-serif" font-size="14" lengthAdjust="spacing" textLength="12" x="499" y="77.0332">   </text><line style="stroke:#000000;stroke-width:1.0;" x1="494" x2="494" y1="60.5" y2="82.1094"/><line style="stroke:#000000;stroke-width:1.0;" x1="319" x2="516" y1="82.1094" y2="82.1094"/><text fill="#000000" font-family="sans-serif" font-size="14" font-weight="bold" lengthAdjust="spacing" textLength="165" x="324" y="98.6426">individualRelationships</text><text fill="#000000" font-family="sans-serif" font-size="14" lengthAdjust="spacing" textLength="12" x="499" y="98.6426">   </text><line style="stroke:#000000;stroke-width:1.0;" x1="494" x2="494" y1="82.1094" y2="103.7188"/><rect fill="none" height="43.2188" rx="5" ry="5" style="stroke:#000000;stroke-width:1.5;" width="197" x="319" y="60.5"/><rect fill="#F1F1F1" height="43.2188" rx="5" ry="5" style="stroke:#F1F1F1;stroke-width:1.5;" width="167" x="591" y="10.5"/><text fill="#000000" font-family="sans-serif" font-size="14" font-weight="bold" lengthAdjust="spacing" textLength="32" x="596" y="27.0332">alias</text><text fill="#000000" font-family="sans-serif" font-size="14" lengthAdjust="spacing" textLength="57" x="691" y="27.0332">P123542</text><line style="stroke:#000000;stroke-width:1.0;" x1="686" x2="686" y1="10.5" y2="32.1094"/><line style="stroke:#000000;stroke-width:1.0;" x1="591" x2="758" y1="32.1094" y2="32.1094"/><text fill="#000000" font-family="sans-serif" font-size="14" font-weight="bold" lengthAdjust="spacing" textLength="85" x="596" y="48.6426">centerName</text><text fill="#000000" font-family="sans-serif" font-size="14" lengthAdjust="spacing" textLength="62" x="691" y="48.6426">EBI-TEST</text><line style="stroke:#000000;stroke-width:1.0;" x1="686" x2="686" y1="32.1094" y2="53.7188"/><rect fill="none" height="43.2188" rx="5" ry="5" style="stroke:#000000;stroke-width:1.5;" width="167" x="591" y="10.5"/><rect fill="#F1F1F1" height="43.2188" rx="5" ry="5" style="stroke:#F1F1F1;stroke-width:1.5;" width="22" x="662.5" y="71.5"/><text fill="#000000" font-family="sans-serif" font-size="14" lengthAdjust="spacing" textLength="12" x="667.5" y="88.0332">   </text><line style="stroke:#000000;stroke-width:1.0;" x1="662.5" x2="684.5" y1="93.1094" y2="93.1094"/><text fill="#000000" font-family="sans-serif" font-size="14" lengthAdjust="spacing" textLength="12" x="667.5" y="109.6426">   </text><rect fill="none" height="43.2188" rx="5" ry="5" style="stroke:#000000;stroke-width:1.5;" width="22" x="662.5" y="71.5"/><rect fill="#F1F1F1" height="43.2188" rx="5" ry="5" style="stroke:#F1F1F1;stroke-width:1.5;" width="161" x="833" y="21.5"/><text fill="#000000" font-family="sans-serif" font-size="14" font-weight="bold" lengthAdjust="spacing" textLength="56" x="838" y="38.0332">rSource</text><text fill="#000000" font-family="sans-serif" font-size="14" lengthAdjust="spacing" textLength="12" x="904" y="38.0332">   </text><line style="stroke:#000000;stroke-width:1.0;" x1="899" x2="899" y1="21.5" y2="43.1094"/><line style="stroke:#000000;stroke-width:1.0;" x1="833" x2="994" y1="43.1094" y2="43.1094"/><text fill="#000000" font-family="sans-serif" font-size="14" font-weight="bold" lengthAdjust="spacing" textLength="39" x="838" y="59.6426">rType</text><text fill="#000000" font-family="sans-serif" font-size="14" lengthAdjust="spacing" textLength="85" x="904" y="59.6426">referencedBy</text><line style="stroke:#000000;stroke-width:1.0;" x1="899" x2="899" y1="43.1094" y2="64.7188"/><rect fill="none" height="43.2188" rx="5" ry="5" style="stroke:#000000;stroke-width:1.5;" width="161" x="833" y="21.5"/><rect fill="#F1F1F1" height="43.2188" rx="5" ry="5" style="stroke:#F1F1F1;stroke-width:1.5;" width="211" x="1031" y="10.5"/><text fill="#000000" font-family="sans-serif" font-size="14" font-weight="bold" lengthAdjust="spacing" textLength="57" x="1036" y="27.0332">objectId</text><text fill="#000000" font-family="sans-serif" font-size="14" lengthAdjust="spacing" textLength="12" x="1123" y="27.0332">   </text><line style="stroke:#000000;stroke-width:1.0;" x1="1118" x2="1118" y1="10.5" y2="32.1094"/><line style="stroke:#000000;stroke-width:1.0;" x1="1031" x2="1242" y1="32.1094" y2="32.1094"/><text fill="#000000" font-family="sans-serif" font-size="14" font-weight="bold" lengthAdjust="spacing" textLength="77" x="1036" y="48.6426">objectType</text><text fill="#000000" font-family="sans-serif" font-size="14" lengthAdjust="spacing" textLength="114" x="1123" y="48.6426">externalAccession</text><line style="stroke:#000000;stroke-width:1.0;" x1="1118" x2="1118" y1="32.1094" y2="53.7188"/><rect fill="none" height="43.2188" rx="5" ry="5" style="stroke:#000000;stroke-width:1.5;" width="211" x="1031" y="10.5"/><rect fill="#F1F1F1" height="21.6094" rx="5" ry="5" style="stroke:#F1F1F1;stroke-width:1.5;" width="170" x="1316" y="10"/><text fill="#000000" font-family="sans-serif" font-size="14" font-weight="bold" lengthAdjust="spacing" textLength="138" x="1321" y="26.5332">externalAccessions</text><text fill="#000000" font-family="sans-serif" font-size="14" lengthAdjust="spacing" textLength="12" x="1469" y="26.5332">   </text><line style="stroke:#000000;stroke-width:1.0;" x1="1464" x2="1464" y1="10" y2="31.6094"/><rect fill="none" height="21.6094" rx="5" ry="5" style="stroke:#000000;stroke-width:1.5;" width="170" x="1316" y="10"/><rect fill="#F1F1F1" height="21.6094" rx="5" ry="5" style="stroke:#F1F1F1;stroke-width:1.5;" width="22" x="1560" y="10"/><text fill="#000000" font-family="sans-serif" font-size="14" lengthAdjust="spacing" textLength="12" x="1565" y="26.5332">   </text><rect fill="none" height="21.6094" rx="5" ry="5" style="stroke:#000000;stroke-width:1.5;" width="22" x="1560" y="10"/><rect fill="#F1F1F1" height="21.6094" rx="5" ry="5" style="stroke:#F1F1F1;stroke-width:1.5;" width="556" x="1621" y="10"/><text fill="#000000" font-family="sans-serif" font-size="14" font-weight="bold" lengthAdjust="spacing" textLength="198" x="1626" y="26.5332">objectExternalAccessionURI</text><text fill="#000000" font-family="sans-serif" font-size="14" lengthAdjust="spacing" textLength="338" x="1834" y="26.5332">https://www.jacc.org/doi/10.1016/j.jaccas.2020.04.001</text><line style="stroke:#000000;stroke-width:1.0;" x1="1829" x2="1829" y1="10" y2="31.6094"/><rect fill="none" height="21.6094" rx="5" ry="5" style="stroke:#000000;stroke-width:1.5;" width="556" x="1621" y="10"/><rect fill="#F1F1F1" height="43.2188" rx="5" ry="5" style="stroke:#F1F1F1;stroke-width:1.5;" width="161" x="833" y="82.5"/><text fill="#000000" font-family="sans-serif" font-size="14" font-weight="bold" lengthAdjust="spacing" textLength="56" x="838" y="99.0332">rSource</text><text fill="#000000" font-family="sans-serif" font-size="14" lengthAdjust="spacing" textLength="12" x="904" y="99.0332">   </text><line style="stroke:#000000;stroke-width:1.0;" x1="899" x2="899" y1="82.5" y2="104.1094"/><line style="stroke:#000000;stroke-width:1.0;" x1="833" x2="994" y1="104.1094" y2="104.1094"/><text fill="#000000" font-family="sans-serif" font-size="14" font-weight="bold" lengthAdjust="spacing" textLength="39" x="838" y="120.6426">rType</text><text fill="#000000" font-family="sans-serif" font-size="14" lengthAdjust="spacing" textLength="85" x="904" y="120.6426">referencedBy</text><line style="stroke:#000000;stroke-width:1.0;" x1="899" x2="899" y1="104.1094" y2="125.7188"/><rect fill="none" height="43.2188" rx="5" ry="5" style="stroke:#000000;stroke-width:1.5;" width="161" x="833" y="82.5"/><rect fill="#F1F1F1" height="43.2188" rx="5" ry="5" style="stroke:#F1F1F1;stroke-width:1.5;" width="167" x="1053" y="71.5"/><text fill="#000000" font-family="sans-serif" font-size="14" font-weight="bold" lengthAdjust="spacing" textLength="57" x="1058" y="88.0332">objectId</text><text fill="#000000" font-family="sans-serif" font-size="14" lengthAdjust="spacing" textLength="12" x="1145" y="88.0332">   </text><line style="stroke:#000000;stroke-width:1.0;" x1="1140" x2="1140" y1="71.5" y2="93.1094"/><line style="stroke:#000000;stroke-width:1.0;" x1="1053" x2="1220" y1="93.1094" y2="93.1094"/><text fill="#000000" font-family="sans-serif" font-size="14" font-weight="bold" lengthAdjust="spacing" textLength="77" x="1058" y="109.6426">objectType</text><text fill="#000000" font-family="sans-serif" font-size="14" lengthAdjust="spacing" textLength="70" x="1145" y="109.6426">submission</text><line style="stroke:#000000;stroke-width:1.0;" x1="1140" x2="1140" y1="93.1094" y2="114.7188"/><rect fill="none" height="43.2188" rx="5" ry="5" style="stroke:#000000;stroke-width:1.5;" width="167" x="1053" y="71.5"/><rect fill="#F1F1F1" height="21.6094" rx="5" ry="5" style="stroke:#F1F1F1;stroke-width:1.5;" width="244" x="1279" y="71"/><text fill="#000000" font-family="sans-serif" font-size="14" font-weight="bold" lengthAdjust="spacing" textLength="98" x="1284" y="87.5332">egaAccession</text><text fill="#000000" font-family="sans-serif" font-size="14" lengthAdjust="spacing" textLength="126" x="1392" y="87.5332">EGAB00000000001</text><line style="stroke:#000000;stroke-width:1.0;" x1="1387" x2="1387" y1="71" y2="92.6094"/><rect fill="none" height="21.6094" rx="5" ry="5" style="stroke:#000000;stroke-width:1.5;" width="244" x="1279" y="71"/><rect fill="#F1F1F1" height="43.2188" rx="5" ry="5" style="stroke:#F1F1F1;stroke-width:1.5;" width="178" x="328.5" y="168.5"/><text fill="#000000" font-family="sans-serif" font-size="14" font-weight="bold" lengthAdjust="spacing" textLength="57" x="333.5" y="185.0332">objectId</text><text fill="#000000" font-family="sans-serif" font-size="14" lengthAdjust="spacing" textLength="12" x="489.5" y="185.0332">   </text><line style="stroke:#000000;stroke-width:1.0;" x1="484.5" x2="484.5" y1="168.5" y2="190.1094"/><line style="stroke:#000000;stroke-width:1.0;" x1="328.5" x2="506.5" y1="190.1094" y2="190.1094"/><text fill="#000000" font-family="sans-serif" font-size="14" font-weight="bold" lengthAdjust="spacing" textLength="146" x="333.5" y="206.6426">sampleRelationships</text><text fill="#000000" font-family="sans-serif" font-size="14" lengthAdjust="spacing" textLength="12" x="489.5" y="206.6426">   </text><line style="stroke:#000000;stroke-width:1.0;" x1="484.5" x2="484.5" y1="190.1094" y2="211.7188"/><rect fill="none" height="43.2188" rx="5" ry="5" style="stroke:#000000;stroke-width:1.5;" width="178" x="328.5" y="168.5"/><rect fill="#F1F1F1" height="43.2188" rx="5" ry="5" style="stroke:#F1F1F1;stroke-width:1.5;" width="243" x="553" y="132.5"/><text fill="#000000" font-family="sans-serif" font-size="14" font-weight="bold" lengthAdjust="spacing" textLength="32" x="558" y="149.0332">alias</text><text fill="#000000" font-family="sans-serif" font-size="14" lengthAdjust="spacing" textLength="138" x="653" y="149.0332">P123542 - Lung swab</text><line style="stroke:#000000;stroke-width:1.0;" x1="648" x2="648" y1="132.5" y2="154.1094"/><line style="stroke:#000000;stroke-width:1.0;" x1="553" x2="796" y1="154.1094" y2="154.1094"/><text fill="#000000" font-family="sans-serif" font-size="14" font-weight="bold" lengthAdjust="spacing" textLength="85" x="558" y="170.6426">centerName</text><text fill="#000000" font-family="sans-serif" font-size="14" lengthAdjust="spacing" textLength="62" x="653" y="170.6426">EBI-TEST</text><line style="stroke:#000000;stroke-width:1.0;" x1="648" x2="648" y1="154.1094" y2="175.7188"/><rect fill="none" height="43.2188" rx="5" ry="5" style="stroke:#000000;stroke-width:1.5;" width="243" x="553" y="132.5"/><rect fill="#F1F1F1" height="64.8281" rx="5" ry="5" style="stroke:#F1F1F1;stroke-width:1.5;" width="22" x="662.5" y="193.5"/><text fill="#000000" font-family="sans-serif" font-size="14" lengthAdjust="spacing" textLength="12" x="667.5" y="210.0332">   </text><line style="stroke:#000000;stroke-width:1.0;" x1="662.5" x2="684.5" y1="215.1094" y2="215.1094"/><text fill="#000000" font-family="sans-serif" font-size="14" lengthAdjust="spacing" textLength="12" x="667.5" y="231.6426">   </text><line style="stroke:#000000;stroke-width:1.0;" x1="662.5" x2="684.5" y1="236.7188" y2="236.7188"/><text fill="#000000" font-family="sans-serif" font-size="14" lengthAdjust="spacing" textLength="12" x="667.5" y="253.252">   </text><rect fill="none" height="64.8281" rx="5" ry="5" style="stroke:#000000;stroke-width:1.5;" width="22" x="662.5" y="193.5"/><rect fill="#F1F1F1" height="43.2188" rx="5" ry="5" style="stroke:#F1F1F1;stroke-width:1.5;" width="161" x="833" y="143.5"/><text fill="#000000" font-family="sans-serif" font-size="14" font-weight="bold" lengthAdjust="spacing" textLength="56" x="838" y="160.0332">rSource</text><text fill="#000000" font-family="sans-serif" font-size="14" lengthAdjust="spacing" textLength="12" x="904" y="160.0332">   </text><line style="stroke:#000000;stroke-width:1.0;" x1="899" x2="899" y1="143.5" y2="165.1094"/><line style="stroke:#000000;stroke-width:1.0;" x1="833" x2="994" y1="165.1094" y2="165.1094"/><text fill="#000000" font-family="sans-serif" font-size="14" font-weight="bold" lengthAdjust="spacing" textLength="39" x="838" y="181.6426">rType</text><text fill="#000000" font-family="sans-serif" font-size="14" lengthAdjust="spacing" textLength="85" x="904" y="181.6426">referencedBy</text><line style="stroke:#000000;stroke-width:1.0;" x1="899" x2="899" y1="165.1094" y2="186.7188"/><rect fill="none" height="43.2188" rx="5" ry="5" style="stroke:#000000;stroke-width:1.5;" width="161" x="833" y="143.5"/><rect fill="#F1F1F1" height="43.2188" rx="5" ry="5" style="stroke:#F1F1F1;stroke-width:1.5;" width="156" x="1058.5" y="132.5"/><text fill="#000000" font-family="sans-serif" font-size="14" font-weight="bold" lengthAdjust="spacing" textLength="57" x="1063.5" y="149.0332">objectId</text><text fill="#000000" font-family="sans-serif" font-size="14" lengthAdjust="spacing" textLength="12" x="1150.5" y="149.0332">   </text><line style="stroke:#000000;stroke-width:1.0;" x1="1145.5" x2="1145.5" y1="132.5" y2="154.1094"/><line style="stroke:#000000;stroke-width:1.0;" x1="1058.5" x2="1214.5" y1="154.1094" y2="154.1094"/><text fill="#000000" font-family="sans-serif" font-size="14" font-weight="bold" lengthAdjust="spacing" textLength="77" x="1063.5" y="170.6426">objectType</text><text fill="#000000" font-family="sans-serif" font-size="14" lengthAdjust="spacing" textLength="59" x="1150.5" y="170.6426">individual</text><line style="stroke:#000000;stroke-width:1.0;" x1="1145.5" x2="1145.5" y1="154.1094" y2="175.7188"/><rect fill="none" height="43.2188" rx="5" ry="5" style="stroke:#000000;stroke-width:1.5;" width="156" x="1058.5" y="132.5"/><rect fill="#F1F1F1" height="43.2188" rx="5" ry="5" style="stroke:#F1F1F1;stroke-width:1.5;" width="167" x="1317.5" y="121.5"/><text fill="#000000" font-family="sans-serif" font-size="14" font-weight="bold" lengthAdjust="spacing" textLength="32" x="1322.5" y="138.0332">alias</text><text fill="#000000" font-family="sans-serif" font-size="14" lengthAdjust="spacing" textLength="57" x="1417.5" y="138.0332">P123542</text><line style="stroke:#000000;stroke-width:1.0;" x1="1412.5" x2="1412.5" y1="121.5" y2="143.1094"/><line style="stroke:#000000;stroke-width:1.0;" x1="1317.5" x2="1484.5" y1="143.1094" y2="143.1094"/><text fill="#000000" font-family="sans-serif" font-size="14" font-weight="bold" lengthAdjust="spacing" textLength="85" x="1322.5" y="159.6426">centerName</text><text fill="#000000" font-family="sans-serif" font-size="14" lengthAdjust="spacing" textLength="62" x="1417.5" y="159.6426">EBI-TEST</text><line style="stroke:#000000;stroke-width:1.0;" x1="1412.5" x2="1412.5" y1="143.1094" y2="164.7188"/><rect fill="none" height="43.2188" rx="5" ry="5" style="stroke:#000000;stroke-width:1.5;" width="167" x="1317.5" y="121.5"/><rect fill="#F1F1F1" height="43.2188" rx="5" ry="5" style="stroke:#F1F1F1;stroke-width:1.5;" width="161" x="833" y="204.5"/><text fill="#000000" font-family="sans-serif" font-size="14" font-weight="bold" lengthAdjust="spacing" textLength="56" x="838" y="221.0332">rSource</text><text fill="#000000" font-family="sans-serif" font-size="14" lengthAdjust="spacing" textLength="12" x="904" y="221.0332">   </text><line style="stroke:#000000;stroke-width:1.0;" x1="899" x2="899" y1="204.5" y2="226.1094"/><line style="stroke:#000000;stroke-width:1.0;" x1="833" x2="994" y1="226.1094" y2="226.1094"/><text fill="#000000" font-family="sans-serif" font-size="14" font-weight="bold" lengthAdjust="spacing" textLength="39" x="838" y="242.6426">rType</text><text fill="#000000" font-family="sans-serif" font-size="14" lengthAdjust="spacing" textLength="85" x="904" y="242.6426">referencedBy</text><line style="stroke:#000000;stroke-width:1.0;" x1="899" x2="899" y1="226.1094" y2="247.7188"/><rect fill="none" height="43.2188" rx="5" ry="5" style="stroke:#000000;stroke-width:1.5;" width="161" x="833" y="204.5"/><rect fill="#F1F1F1" height="43.2188" rx="5" ry="5" style="stroke:#F1F1F1;stroke-width:1.5;" width="148" x="1062.5" y="193.5"/><text fill="#000000" font-family="sans-serif" font-size="14" font-weight="bold" lengthAdjust="spacing" textLength="57" x="1067.5" y="210.0332">objectId</text><text fill="#000000" font-family="sans-serif" font-size="14" lengthAdjust="spacing" textLength="12" x="1154.5" y="210.0332">   </text><line style="stroke:#000000;stroke-width:1.0;" x1="1149.5" x2="1149.5" y1="193.5" y2="215.1094"/><line style="stroke:#000000;stroke-width:1.0;" x1="1062.5" x2="1210.5" y1="215.1094" y2="215.1094"/><text fill="#000000" font-family="sans-serif" font-size="14" font-weight="bold" lengthAdjust="spacing" textLength="77" x="1067.5" y="231.6426">objectType</text><text fill="#000000" font-family="sans-serif" font-size="14" lengthAdjust="spacing" textLength="51" x="1154.5" y="231.6426">protocol</text><line style="stroke:#000000;stroke-width:1.0;" x1="1149.5" x2="1149.5" y1="215.1094" y2="236.7188"/><rect fill="none" height="43.2188" rx="5" ry="5" style="stroke:#000000;stroke-width:1.5;" width="148" x="1062.5" y="193.5"/><rect fill="#F1F1F1" height="43.2188" rx="5" ry="5" style="stroke:#F1F1F1;stroke-width:1.5;" width="236" x="1283" y="182.5"/><text fill="#000000" font-family="sans-serif" font-size="14" font-weight="bold" lengthAdjust="spacing" textLength="32" x="1288" y="199.0332">alias</text><text fill="#000000" font-family="sans-serif" font-size="14" lengthAdjust="spacing" textLength="131" x="1383" y="199.0332">Lung swab collection</text><line style="stroke:#000000;stroke-width:1.0;" x1="1378" x2="1378" y1="182.5" y2="204.1094"/><line style="stroke:#000000;stroke-width:1.0;" x1="1283" x2="1519" y1="204.1094" y2="204.1094"/><text fill="#000000" font-family="sans-serif" font-size="14" font-weight="bold" lengthAdjust="spacing" textLength="85" x="1288" y="220.6426">centerName</text><text fill="#000000" font-family="sans-serif" font-size="14" lengthAdjust="spacing" textLength="62" x="1383" y="220.6426">EBI-TEST</text><line style="stroke:#000000;stroke-width:1.0;" x1="1378" x2="1378" y1="204.1094" y2="225.7188"/><rect fill="none" height="43.2188" rx="5" ry="5" style="stroke:#000000;stroke-width:1.5;" width="236" x="1283" y="182.5"/><rect fill="#F1F1F1" height="43.2188" rx="5" ry="5" style="stroke:#F1F1F1;stroke-width:1.5;" width="161" x="833" y="265.5"/><text fill="#000000" font-family="sans-serif" font-size="14" font-weight="bold" lengthAdjust="spacing" textLength="56" x="838" y="282.0332">rSource</text><text fill="#000000" font-family="sans-serif" font-size="14" lengthAdjust="spacing" textLength="12" x="904" y="282.0332">   </text><line style="stroke:#000000;stroke-width:1.0;" x1="899" x2="899" y1="265.5" y2="287.1094"/><line style="stroke:#000000;stroke-width:1.0;" x1="833" x2="994" y1="287.1094" y2="287.1094"/><text fill="#000000" font-family="sans-serif" font-size="14" font-weight="bold" lengthAdjust="spacing" textLength="39" x="838" y="303.6426">rType</text><text fill="#000000" font-family="sans-serif" font-size="14" lengthAdjust="spacing" textLength="85" x="904" y="303.6426">referencedBy</text><line style="stroke:#000000;stroke-width:1.0;" x1="899" x2="899" y1="287.1094" y2="308.7188"/><rect fill="none" height="43.2188" rx="5" ry="5" style="stroke:#000000;stroke-width:1.5;" width="161" x="833" y="265.5"/><rect fill="#F1F1F1" height="43.2188" rx="5" ry="5" style="stroke:#F1F1F1;stroke-width:1.5;" width="167" x="1053" y="254.5"/><text fill="#000000" font-family="sans-serif" font-size="14" font-weight="bold" lengthAdjust="spacing" textLength="57" x="1058" y="271.0332">objectId</text><text fill="#000000" font-family="sans-serif" font-size="14" lengthAdjust="spacing" textLength="12" x="1145" y="271.0332">   </text><line style="stroke:#000000;stroke-width:1.0;" x1="1140" x2="1140" y1="254.5" y2="276.1094"/><line style="stroke:#000000;stroke-width:1.0;" x1="1053" x2="1220" y1="276.1094" y2="276.1094"/><text fill="#000000" font-family="sans-serif" font-size="14" font-weight="bold" lengthAdjust="spacing" textLength="77" x="1058" y="292.6426">objectType</text><text fill="#000000" font-family="sans-serif" font-size="14" lengthAdjust="spacing" textLength="70" x="1145" y="292.6426">submission</text><line style="stroke:#000000;stroke-width:1.0;" x1="1140" x2="1140" y1="276.1094" y2="297.7188"/><rect fill="none" height="43.2188" rx="5" ry="5" style="stroke:#000000;stroke-width:1.5;" width="167" x="1053" y="254.5"/><rect fill="#F1F1F1" height="21.6094" rx="5" ry="5" style="stroke:#F1F1F1;stroke-width:1.5;" width="244" x="1279" y="254"/><text fill="#000000" font-family="sans-serif" font-size="14" font-weight="bold" lengthAdjust="spacing" textLength="98" x="1284" y="270.5332">egaAccession</text><text fill="#000000" font-family="sans-serif" font-size="14" lengthAdjust="spacing" textLength="126" x="1392" y="270.5332">EGAB00000000001</text><line style="stroke:#000000;stroke-width:1.0;" x1="1387" x2="1387" y1="254" y2="275.6094"/><rect fill="none" height="21.6094" rx="5" ry="5" style="stroke:#000000;stroke-width:1.5;" width="244" x="1279" y="254"/><rect fill="#F1F1F1" height="43.2188" rx="5" ry="5" style="stroke:#F1F1F1;stroke-width:1.5;" width="166" x="334.5" y="287.5"/><text fill="#000000" font-family="sans-serif" font-size="14" font-weight="bold" lengthAdjust="spacing" textLength="57" x="339.5" y="304.0332">objectId</text><text fill="#000000" font-family="sans-serif" font-size="14" lengthAdjust="spacing" textLength="12" x="483.5" y="304.0332">   </text><line style="stroke:#000000;stroke-width:1.0;" x1="478.5" x2="478.5" y1="287.5" y2="309.1094"/><line style="stroke:#000000;stroke-width:1.0;" x1="334.5" x2="500.5" y1="309.1094" y2="309.1094"/><text fill="#000000" font-family="sans-serif" font-size="14" font-weight="bold" lengthAdjust="spacing" textLength="134" x="339.5" y="325.6426">studyRelationships</text><text fill="#000000" font-family="sans-serif" font-size="14" lengthAdjust="spacing" textLength="12" x="483.5" y="325.6426">   </text><line style="stroke:#000000;stroke-width:1.0;" x1="478.5" x2="478.5" y1="309.1094" y2="330.7188"/><rect fill="none" height="43.2188" rx="5" ry="5" style="stroke:#000000;stroke-width:1.5;" width="166" x="334.5" y="287.5"/><rect fill="#F1F1F1" height="43.2188" rx="5" ry="5" style="stroke:#F1F1F1;stroke-width:1.5;" width="204" x="572.5" y="276.5"/><text fill="#000000" font-family="sans-serif" font-size="14" font-weight="bold" lengthAdjust="spacing" textLength="32" x="577.5" y="293.0332">alias</text><text fill="#000000" font-family="sans-serif" font-size="14" lengthAdjust="spacing" textLength="99" x="672.5" y="293.0332">COVID19 Study</text><line style="stroke:#000000;stroke-width:1.0;" x1="667.5" x2="667.5" y1="276.5" y2="298.1094"/><line style="stroke:#000000;stroke-width:1.0;" x1="572.5" x2="776.5" y1="298.1094" y2="298.1094"/><text fill="#000000" font-family="sans-serif" font-size="14" font-weight="bold" lengthAdjust="spacing" textLength="85" x="577.5" y="314.6426">centerName</text><text fill="#000000" font-family="sans-serif" font-size="14" lengthAdjust="spacing" textLength="62" x="672.5" y="314.6426">EBI-TEST</text><line style="stroke:#000000;stroke-width:1.0;" x1="667.5" x2="667.5" y1="298.1094" y2="319.7188"/><rect fill="none" height="43.2188" rx="5" ry="5" style="stroke:#000000;stroke-width:1.5;" width="204" x="572.5" y="276.5"/><rect fill="#F1F1F1" height="43.2188" rx="5" ry="5" style="stroke:#F1F1F1;stroke-width:1.5;" width="22" x="662.5" y="337.5"/><text fill="#000000" font-family="sans-serif" font-size="14" lengthAdjust="spacing" textLength="12" x="667.5" y="354.0332">   </text><line style="stroke:#000000;stroke-width:1.0;" x1="662.5" x2="684.5" y1="359.1094" y2="359.1094"/><text fill="#000000" font-family="sans-serif" font-size="14" lengthAdjust="spacing" textLength="12" x="667.5" y="375.6426">   </text><rect fill="none" height="43.2188" rx="5" ry="5" style="stroke:#000000;stroke-width:1.5;" width="22" x="662.5" y="337.5"/><rect fill="#F1F1F1" height="43.2188" rx="5" ry="5" style="stroke:#F1F1F1;stroke-width:1.5;" width="161" x="833" y="326.5"/><text fill="#000000" font-family="sans-serif" font-size="14" font-weight="bold" lengthAdjust="spacing" textLength="56" x="838" y="343.0332">rSource</text><text fill="#000000" font-family="sans-serif" font-size="14" lengthAdjust="spacing" textLength="12" x="904" y="343.0332">   </text><line style="stroke:#000000;stroke-width:1.0;" x1="899" x2="899" y1="326.5" y2="348.1094"/><line style="stroke:#000000;stroke-width:1.0;" x1="833" x2="994" y1="348.1094" y2="348.1094"/><text fill="#000000" font-family="sans-serif" font-size="14" font-weight="bold" lengthAdjust="spacing" textLength="39" x="838" y="364.6426">rType</text><text fill="#000000" font-family="sans-serif" font-size="14" lengthAdjust="spacing" textLength="85" x="904" y="364.6426">referencedBy</text><line style="stroke:#000000;stroke-width:1.0;" x1="899" x2="899" y1="348.1094" y2="369.7188"/><rect fill="none" height="43.2188" rx="5" ry="5" style="stroke:#000000;stroke-width:1.5;" width="161" x="833" y="326.5"/><rect fill="#F1F1F1" height="43.2188" rx="5" ry="5" style="stroke:#F1F1F1;stroke-width:1.5;" width="211" x="1031" y="315.5"/><text fill="#000000" font-family="sans-serif" font-size="14" font-weight="bold" lengthAdjust="spacing" textLength="57" x="1036" y="332.0332">objectId</text><text fill="#000000" font-family="sans-serif" font-size="14" lengthAdjust="spacing" textLength="12" x="1123" y="332.0332">   </text><line style="stroke:#000000;stroke-width:1.0;" x1="1118" x2="1118" y1="315.5" y2="337.1094"/><line style="stroke:#000000;stroke-width:1.0;" x1="1031" x2="1242" y1="337.1094" y2="337.1094"/><text fill="#000000" font-family="sans-serif" font-size="14" font-weight="bold" lengthAdjust="spacing" textLength="77" x="1036" y="353.6426">objectType</text><text fill="#000000" font-family="sans-serif" font-size="14" lengthAdjust="spacing" textLength="114" x="1123" y="353.6426">externalAccession</text><line style="stroke:#000000;stroke-width:1.0;" x1="1118" x2="1118" y1="337.1094" y2="358.7188"/><rect fill="none" height="43.2188" rx="5" ry="5" style="stroke:#000000;stroke-width:1.5;" width="211" x="1031" y="315.5"/><rect fill="#F1F1F1" height="21.6094" rx="5" ry="5" style="stroke:#F1F1F1;stroke-width:1.5;" width="170" x="1316" y="315"/><text fill="#000000" font-family="sans-serif" font-size="14" font-weight="bold" lengthAdjust="spacing" textLength="138" x="1321" y="331.5332">externalAccessions</text><text fill="#000000" font-family="sans-serif" font-size="14" lengthAdjust="spacing" textLength="12" x="1469" y="331.5332">   </text><line style="stroke:#000000;stroke-width:1.0;" x1="1464" x2="1464" y1="315" y2="336.6094"/><rect fill="none" height="21.6094" rx="5" ry="5" style="stroke:#000000;stroke-width:1.5;" width="170" x="1316" y="315"/><rect fill="#F1F1F1" height="21.6094" rx="5" ry="5" style="stroke:#F1F1F1;stroke-width:1.5;" width="22" x="1560" y="315"/><text fill="#000000" font-family="sans-serif" font-size="14" lengthAdjust="spacing" textLength="12" x="1565" y="331.5332">   </text><rect fill="none" height="21.6094" rx="5" ry="5" style="stroke:#000000;stroke-width:1.5;" width="22" x="1560" y="315"/><rect fill="#F1F1F1" height="21.6094" rx="5" ry="5" style="stroke:#F1F1F1;stroke-width:1.5;" width="556" x="1621" y="315"/><text fill="#000000" font-family="sans-serif" font-size="14" font-weight="bold" lengthAdjust="spacing" textLength="198" x="1626" y="331.5332">objectExternalAccessionURI</text><text fill="#000000" font-family="sans-serif" font-size="14" lengthAdjust="spacing" textLength="338" x="1834" y="331.5332">https://www.jacc.org/doi/10.1016/j.jaccas.2020.04.001</text><line style="stroke:#000000;stroke-width:1.0;" x1="1829" x2="1829" y1="315" y2="336.6094"/><rect fill="none" height="21.6094" rx="5" ry="5" style="stroke:#000000;stroke-width:1.5;" width="556" x="1621" y="315"/><rect fill="#F1F1F1" height="43.2188" rx="5" ry="5" style="stroke:#F1F1F1;stroke-width:1.5;" width="161" x="833" y="387.5"/><text fill="#000000" font-family="sans-serif" font-size="14" font-weight="bold" lengthAdjust="spacing" textLength="56" x="838" y="404.0332">rSource</text><text fill="#000000" font-family="sans-serif" font-size="14" lengthAdjust="spacing" textLength="12" x="904" y="404.0332">   </text><line style="stroke:#000000;stroke-width:1.0;" x1="899" x2="899" y1="387.5" y2="409.1094"/><line style="stroke:#000000;stroke-width:1.0;" x1="833" x2="994" y1="409.1094" y2="409.1094"/><text fill="#000000" font-family="sans-serif" font-size="14" font-weight="bold" lengthAdjust="spacing" textLength="39" x="838" y="425.6426">rType</text><text fill="#000000" font-family="sans-serif" font-size="14" lengthAdjust="spacing" textLength="85" x="904" y="425.6426">referencedBy</text><line style="stroke:#000000;stroke-width:1.0;" x1="899" x2="899" y1="409.1094" y2="430.7188"/><rect fill="none" height="43.2188" rx="5" ry="5" style="stroke:#000000;stroke-width:1.5;" width="161" x="833" y="387.5"/><rect fill="#F1F1F1" height="43.2188" rx="5" ry="5" style="stroke:#F1F1F1;stroke-width:1.5;" width="167" x="1053" y="376.5"/><text fill="#000000" font-family="sans-serif" font-size="14" font-weight="bold" lengthAdjust="spacing" textLength="57" x="1058" y="393.0332">objectId</text><text fill="#000000" font-family="sans-serif" font-size="14" lengthAdjust="spacing" textLength="12" x="1145" y="393.0332">   </text><line style="stroke:#000000;stroke-width:1.0;" x1="1140" x2="1140" y1="376.5" y2="398.1094"/><line style="stroke:#000000;stroke-width:1.0;" x1="1053" x2="1220" y1="398.1094" y2="398.1094"/><text fill="#000000" font-family="sans-serif" font-size="14" font-weight="bold" lengthAdjust="spacing" textLength="77" x="1058" y="414.6426">objectType</text><text fill="#000000" font-family="sans-serif" font-size="14" lengthAdjust="spacing" textLength="70" x="1145" y="414.6426">submission</text><line style="stroke:#000000;stroke-width:1.0;" x1="1140" x2="1140" y1="398.1094" y2="419.7188"/><rect fill="none" height="43.2188" rx="5" ry="5" style="stroke:#000000;stroke-width:1.5;" width="167" x="1053" y="376.5"/><rect fill="#F1F1F1" height="21.6094" rx="5" ry="5" style="stroke:#F1F1F1;stroke-width:1.5;" width="244" x="1279" y="376"/><text fill="#000000" font-family="sans-serif" font-size="14" font-weight="bold" lengthAdjust="spacing" textLength="98" x="1284" y="392.5332">egaAccession</text><text fill="#000000" font-family="sans-serif" font-size="14" lengthAdjust="spacing" textLength="126" x="1392" y="392.5332">EGAB00000000001</text><line style="stroke:#000000;stroke-width:1.0;" x1="1387" x2="1387" y1="376" y2="397.6094"/><rect fill="none" height="21.6094" rx="5" ry="5" style="stroke:#000000;stroke-width:1.5;" width="244" x="1279" y="376"/><path d="M504,71 L517,71 C533.4924,71 536.9961,65.9844 553,62 C562.971,59.5176 573.4052,56.9241 583.788,54.3461 " fill="none" style="stroke:#000000;stroke-width:1.0;stroke-dasharray:3.0,3.0;"/><path d="M584.5371,57.3636 L586.0512,53.7843 L583.039,51.3286 L591.3318,52.4735 L584.5371,57.3636 " fill="#000000" style="stroke:#000000;stroke-width:1.0;"/><ellipse cx="504" cy="71" fill="#000000" rx="3" ry="3" style="stroke:#000000;stroke-width:1.0;"/><path d="M1571.8815,21 L1584.8815,21 C1591.9606,21 1601.7889,21 1613.6126,21 " fill="none" style="stroke:#000000;stroke-width:1.0;stroke-dasharray:3.0,3.0;"/><path d="M1613.6126,24.0452 L1615.8965,21 L1613.6126,17.9548 L1621.2257,21 L1613.6126,24.0452 " fill="#000000" style="stroke:#000000;stroke-width:1.0;"/><ellipse cx="1571.8815" cy="21" fill="#000000" rx="3" ry="3" style="stroke:#000000;stroke-width:1.0;"/><path d="M1474.5,21 L1487.5,21 C1509.9333,21 1535.7365,21 1552.7598,21 " fill="none" style="stroke:#000000;stroke-width:1.0;stroke-dasharray:3.0,3.0;"/><path d="M1552.7598,24.0393 L1555.0393,21 L1552.7598,17.9607 L1560.3581,21 L1552.7598,24.0393 " fill="#000000" style="stroke:#000000;stroke-width:1.0;"/><ellipse cx="1474.5" cy="21" fill="#000000" rx="3" ry="3" style="stroke:#000000;stroke-width:1.0;"/><path d="M1230,21 L1243,21 C1264.2801,21 1287.1774,21 1308.7421,21 " fill="none" style="stroke:#000000;stroke-width:1.0;stroke-dasharray:3.0,3.0;"/><path d="M1308.7421,24.0269 L1311.0123,21 L1308.7421,17.9731 L1316.3094,21 L1308.7421,24.0269 " fill="#000000" style="stroke:#000000;stroke-width:1.0;"/><ellipse cx="1230" cy="21" fill="#000000" rx="3" ry="3" style="stroke:#000000;stroke-width:1.0;"/><path d="M982,32 L995,32 C1004.2715,32 1013.8859,32 1023.5388,32 " fill="none" style="stroke:#000000;stroke-width:1.0;stroke-dasharray:3.0,3.0;"/><path d="M1023.5388,35.0976 L1025.862,32 L1023.5388,28.9024 L1031.2827,32 L1023.5388,35.0976 " fill="#000000" style="stroke:#000000;stroke-width:1.0;"/><ellipse cx="982" cy="32" fill="#000000" rx="3" ry="3" style="stroke:#000000;stroke-width:1.0;"/><path d="M675,82 L688,82 C734.0013,82 784.526,73.9878 826.023,65.2266 " fill="none" style="stroke:#000000;stroke-width:1.0;stroke-dasharray:3.0,3.0;"/><path d="M826.6569,68.1763 L828.2352,64.7512 L825.3892,62.277 L833.3971,63.642 L826.6569,68.1763 " fill="#000000" style="stroke:#000000;stroke-width:1.0;"/><ellipse cx="675" cy="82" fill="#000000" rx="3" ry="3" style="stroke:#000000;stroke-width:1.0;"/><path d="M1209,82 L1222,82 C1237.9899,82 1254.7855,82 1271.4125,82 " fill="none" style="stroke:#000000;stroke-width:1.0;stroke-dasharray:3.0,3.0;"/><path d="M1271.4125,85.0496 L1273.6997,82 L1271.4125,78.9504 L1279.0365,82 L1271.4125,85.0496 " fill="#000000" style="stroke:#000000;stroke-width:1.0;"/><ellipse cx="1209" cy="82" fill="#000000" rx="3" ry="3" style="stroke:#000000;stroke-width:1.0;"/><path d="M982,93 L995,93 C1011.3456,93 1028.757,93 1045.5663,93 " fill="none" style="stroke:#000000;stroke-width:1.0;stroke-dasharray:3.0,3.0;"/><path d="M1045.5663,96.0699 L1047.8687,93 L1045.5663,89.9301 L1053.2411,93 L1045.5663,96.0699 " fill="#000000" style="stroke:#000000;stroke-width:1.0;"/><ellipse cx="982" cy="93" fill="#000000" rx="3" ry="3" style="stroke:#000000;stroke-width:1.0;"/><path d="M675,104 L688,104 C733.4155,104 783.9874,104 825.6649,104 " fill="none" style="stroke:#000000;stroke-width:1.0;stroke-dasharray:3.0,3.0;"/><path d="M825.6649,107.0701 L827.9675,104 L825.6649,100.9299 L833.3402,104 L825.6649,107.0701 " fill="#000000" style="stroke:#000000;stroke-width:1.0;"/><ellipse cx="675" cy="104" fill="#000000" rx="3" ry="3" style="stroke:#000000;stroke-width:1.0;"/><path d="M504,93 L517,93 C566.8642,93 625.6369,93 655.1214,93 " fill="none" style="stroke:#000000;stroke-width:1.0;stroke-dasharray:3.0,3.0;"/><path d="M655.1214,96.1354 L657.473,93 L655.1214,89.8646 L662.96,93 L655.1214,96.1354 " fill="#000000" style="stroke:#000000;stroke-width:1.0;"/><ellipse cx="504" cy="93" fill="#000000" rx="3" ry="3" style="stroke:#000000;stroke-width:1.0;"/><path d="M270,169 L283,169 C305.493,169 353.2702,134.08 385.266,108.4868 " fill="none" style="stroke:#000000;stroke-width:1.0;stroke-dasharray:3.0,3.0;"/><path d="M387.2584,110.9574 L387.1189,106.9924 L383.2735,106.0162 L391.4425,103.5056 L387.2584,110.9574 " fill="#000000" style="stroke:#000000;stroke-width:1.0;"/><ellipse cx="270" cy="169" fill="#000000" rx="3" ry="3" style="stroke:#000000;stroke-width:1.0;"/><path d="M495,179 L508,179 C523.0276,179 538.736,177.9858 554.2412,176.3659 " fill="none" style="stroke:#000000;stroke-width:1.0;stroke-dasharray:3.0,3.0;"/><path d="M554.578,179.4025 L556.5186,176.1133 L553.9044,173.3293 L561.8327,175.5239 L554.578,179.4025 " fill="#000000" style="stroke:#000000;stroke-width:1.0;"/><ellipse cx="495" cy="179" fill="#000000" rx="3" ry="3" style="stroke:#000000;stroke-width:1.0;"/><path d="M1203,143 L1216,143 C1246.71,143 1280.2952,143 1310.2948,143 " fill="none" style="stroke:#000000;stroke-width:1.0;stroke-dasharray:3.0,3.0;"/><path d="M1310.2948,146.0183 L1312.5585,143 L1310.2948,139.9817 L1317.8406,143 L1310.2948,146.0183 " fill="#000000" style="stroke:#000000;stroke-width:1.0;"/><ellipse cx="1203" cy="143" fill="#000000" rx="3" ry="3" style="stroke:#000000;stroke-width:1.0;"/><path d="M982,154 L995,154 C1013.0993,154 1032.5054,154 1050.9537,154 " fill="none" style="stroke:#000000;stroke-width:1.0;stroke-dasharray:3.0,3.0;"/><path d="M1050.9537,157.1365 L1053.3061,154 L1050.9537,150.8635 L1058.7949,154 L1050.9537,157.1365 " fill="#000000" style="stroke:#000000;stroke-width:1.0;"/><ellipse cx="982" cy="154" fill="#000000" rx="3" ry="3" style="stroke:#000000;stroke-width:1.0;"/><path d="M675,204 L688,204 C734.0013,204 784.526,195.9878 826.023,187.2266 " fill="none" style="stroke:#000000;stroke-width:1.0;stroke-dasharray:3.0,3.0;"/><path d="M826.6569,190.1763 L828.2352,186.7512 L825.3892,184.277 L833.3971,185.642 L826.6569,190.1763 " fill="#000000" style="stroke:#000000;stroke-width:1.0;"/><ellipse cx="675" cy="204" fill="#000000" rx="3" ry="3" style="stroke:#000000;stroke-width:1.0;"/><path d="M1199,204 L1212,204 C1232.6383,204 1254.5476,204 1275.8493,204 " fill="none" style="stroke:#000000;stroke-width:1.0;stroke-dasharray:3.0,3.0;"/><path d="M1275.8493,207.0025 L1278.1011,204 L1275.8493,200.9975 L1283.3555,204 L1275.8493,207.0025 " fill="#000000" style="stroke:#000000;stroke-width:1.0;"/><ellipse cx="1199" cy="204" fill="#000000" rx="3" ry="3" style="stroke:#000000;stroke-width:1.0;"/><path d="M982,215 L995,215 C1014.4495,215 1035.408,215 1055.0655,215 " fill="none" style="stroke:#000000;stroke-width:1.0;stroke-dasharray:3.0,3.0;"/><path d="M1055.0655,218.1011 L1057.3913,215 L1055.0655,211.8989 L1062.8183,215 L1055.0655,218.1011 " fill="#000000" style="stroke:#000000;stroke-width:1.0;"/><ellipse cx="982" cy="215" fill="#000000" rx="3" ry="3" style="stroke:#000000;stroke-width:1.0;"/><path d="M675,225 L688,225 C733.4159,225 783.9879,225.2063 825.6653,225.4314 " fill="none" style="stroke:#000000;stroke-width:1.0;stroke-dasharray:3.0,3.0;"/><path d="M825.6484,228.5016 L827.9679,225.4441 L825.6822,222.3613 L833.3406,225.4736 L825.6484,228.5016 " fill="#000000" style="stroke:#000000;stroke-width:1.0;"/><ellipse cx="675" cy="225" fill="#000000" rx="3" ry="3" style="stroke:#000000;stroke-width:1.0;"/><path d="M1209,265 L1222,265 C1237.9899,265 1254.7855,265 1271.4125,265 " fill="none" style="stroke:#000000;stroke-width:1.0;stroke-dasharray:3.0,3.0;"/><path d="M1271.4125,268.0496 L1273.6997,265 L1271.4125,261.9504 L1279.0365,265 L1271.4125,268.0496 " fill="#000000" style="stroke:#000000;stroke-width:1.0;"/><ellipse cx="1209" cy="265" fill="#000000" rx="3" ry="3" style="stroke:#000000;stroke-width:1.0;"/><path d="M982,276 L995,276 C1011.3456,276 1028.757,276 1045.5663,276 " fill="none" style="stroke:#000000;stroke-width:1.0;stroke-dasharray:3.0,3.0;"/><path d="M1045.5663,279.0699 L1047.8687,276 L1045.5663,272.9301 L1053.2411,276 L1045.5663,279.0699 " fill="#000000" style="stroke:#000000;stroke-width:1.0;"/><ellipse cx="982" cy="276" fill="#000000" rx="3" ry="3" style="stroke:#000000;stroke-width:1.0;"/><path d="M675,248 L688,248 C734.0013,248 784.526,256.0122 826.023,264.7734 " fill="none" style="stroke:#000000;stroke-width:1.0;stroke-dasharray:3.0,3.0;"/><path d="M825.3892,267.723 L828.2352,265.2488 L826.6569,261.8237 L833.3971,266.358 L825.3892,267.723 " fill="#000000" style="stroke:#000000;stroke-width:1.0;"/><ellipse cx="675" cy="248" fill="#000000" rx="3" ry="3" style="stroke:#000000;stroke-width:1.0;"/><path d="M495,201 L508,201 C562.0424,201 624.8889,214.1165 655.4314,221.3481 " fill="none" style="stroke:#000000;stroke-width:1.0;stroke-dasharray:3.0,3.0;"/><path d="M654.7177,224.302 L657.6468,221.8833 L656.145,218.3942 L662.8161,223.1322 L654.7177,224.302 " fill="#000000" style="stroke:#000000;stroke-width:1.0;"/><ellipse cx="495" cy="201" fill="#000000" rx="3" ry="3" style="stroke:#000000;stroke-width:1.0;"/><path d="M270,190 L283,190 C295.3489,190 308.338,190 321.1709,190 " fill="none" style="stroke:#000000;stroke-width:1.0;stroke-dasharray:3.0,3.0;"/><path d="M321.1709,193.0127 L323.4304,190 L321.1709,186.9873 L328.7026,190 L321.1709,193.0127 " fill="#000000" style="stroke:#000000;stroke-width:1.0;"/><ellipse cx="270" cy="190" fill="#000000" rx="3" ry="3" style="stroke:#000000;stroke-width:1.0;"/><path d="M489,298 L502,298 C522.3452,298 544.0441,298 564.9351,298 " fill="none" style="stroke:#000000;stroke-width:1.0;stroke-dasharray:3.0,3.0;"/><path d="M564.9351,301.0624 L567.2319,298 L564.9351,294.9376 L572.5912,298 L564.9351,301.0624 " fill="#000000" style="stroke:#000000;stroke-width:1.0;"/><ellipse cx="489" cy="298" fill="#000000" rx="3" ry="3" style="stroke:#000000;stroke-width:1.0;"/><path d="M1571.8815,326 L1584.8815,326 C1591.9606,326 1601.7889,326 1613.6126,326 " fill="none" style="stroke:#000000;stroke-width:1.0;stroke-dasharray:3.0,3.0;"/><path d="M1613.6126,329.0452 L1615.8965,326 L1613.6126,322.9548 L1621.2257,326 L1613.6126,329.0452 " fill="#000000" style="stroke:#000000;stroke-width:1.0;"/><ellipse cx="1571.8815" cy="326" fill="#000000" rx="3" ry="3" style="stroke:#000000;stroke-width:1.0;"/><path d="M1474.5,326 L1487.5,326 C1509.9333,326 1535.7365,326 1552.7598,326 " fill="none" style="stroke:#000000;stroke-width:1.0;stroke-dasharray:3.0,3.0;"/><path d="M1552.7598,329.0393 L1555.0393,326 L1552.7598,322.9607 L1560.3581,326 L1552.7598,329.0393 " fill="#000000" style="stroke:#000000;stroke-width:1.0;"/><ellipse cx="1474.5" cy="326" fill="#000000" rx="3" ry="3" style="stroke:#000000;stroke-width:1.0;"/><path d="M1230,326 L1243,326 C1264.2801,326 1287.1774,326 1308.7421,326 " fill="none" style="stroke:#000000;stroke-width:1.0;stroke-dasharray:3.0,3.0;"/><path d="M1308.7421,329.0269 L1311.0123,326 L1308.7421,322.9731 L1316.3094,326 L1308.7421,329.0269 " fill="#000000" style="stroke:#000000;stroke-width:1.0;"/><ellipse cx="1230" cy="326" fill="#000000" rx="3" ry="3" style="stroke:#000000;stroke-width:1.0;"/><path d="M982,337 L995,337 C1004.2715,337 1013.8859,337 1023.5388,337 " fill="none" style="stroke:#000000;stroke-width:1.0;stroke-dasharray:3.0,3.0;"/><path d="M1023.5388,340.0976 L1025.862,337 L1023.5388,333.9024 L1031.2827,337 L1023.5388,340.0976 " fill="#000000" style="stroke:#000000;stroke-width:1.0;"/><ellipse cx="982" cy="337" fill="#000000" rx="3" ry="3" style="stroke:#000000;stroke-width:1.0;"/><path d="M675,348 L688,348 C733.4155,348 783.9874,348 825.6649,348 " fill="none" style="stroke:#000000;stroke-width:1.0;stroke-dasharray:3.0,3.0;"/><path d="M825.6649,351.0701 L827.9675,348 L825.6649,344.9299 L833.3402,348 L825.6649,351.0701 " fill="#000000" style="stroke:#000000;stroke-width:1.0;"/><ellipse cx="675" cy="348" fill="#000000" rx="3" ry="3" style="stroke:#000000;stroke-width:1.0;"/><path d="M1209,387 L1222,387 C1237.9899,387 1254.7855,387 1271.4125,387 " fill="none" style="stroke:#000000;stroke-width:1.0;stroke-dasharray:3.0,3.0;"/><path d="M1271.4125,390.0496 L1273.6997,387 L1271.4125,383.9504 L1279.0365,387 L1271.4125,390.0496 " fill="#000000" style="stroke:#000000;stroke-width:1.0;"/><ellipse cx="1209" cy="387" fill="#000000" rx="3" ry="3" style="stroke:#000000;stroke-width:1.0;"/><path d="M982,398 L995,398 C1011.3456,398 1028.757,398 1045.5663,398 " fill="none" style="stroke:#000000;stroke-width:1.0;stroke-dasharray:3.0,3.0;"/><path d="M1045.5663,401.0699 L1047.8687,398 L1045.5663,394.9301 L1053.2411,398 L1045.5663,401.0699 " fill="#000000" style="stroke:#000000;stroke-width:1.0;"/><ellipse cx="982" cy="398" fill="#000000" rx="3" ry="3" style="stroke:#000000;stroke-width:1.0;"/><path d="M675,370 L688,370 C734.0013,370 784.526,378.0122 826.023,386.7734 " fill="none" style="stroke:#000000;stroke-width:1.0;stroke-dasharray:3.0,3.0;"/><path d="M825.3892,389.723 L828.2352,387.2488 L826.6569,383.8237 L833.3971,388.358 L825.3892,389.723 " fill="#000000" style="stroke:#000000;stroke-width:1.0;"/><ellipse cx="675" cy="370" fill="#000000" rx="3" ry="3" style="stroke:#000000;stroke-width:1.0;"/><path d="M489,320 L502,320 C517.3574,320 614.2815,343.9527 655.494,354.3151 " fill="none" style="stroke:#000000;stroke-width:1.0;stroke-dasharray:3.0,3.0;"/><path d="M654.7419,357.2987 L657.7317,354.8791 L656.246,351.3315 L662.953,356.1952 L654.7419,357.2987 " fill="#000000" style="stroke:#000000;stroke-width:1.0;"/><ellipse cx="489" cy="320" fill="#000000" rx="3" ry="3" style="stroke:#000000;stroke-width:1.0;"/><path d="M270,213 L283,213 C330.29,213 372.3619,252.9994 396.2482,281.3596 " fill="none" style="stroke:#000000;stroke-width:1.0;stroke-dasharray:3.0,3.0;"/><path d="M393.9056,283.2862 L397.6931,283.1166 L398.5908,279.433 L401.0646,287.2161 L393.9056,283.2862 " fill="#000000" style="stroke:#000000;stroke-width:1.0;"/><ellipse cx="270" cy="213" fill="#000000" rx="3" ry="3" style="stroke:#000000;stroke-width:1.0;"/><path d="M209,191 L222,191 C231.374,191 241.7885,191 250.4714,191 " fill="none" style="stroke:#000000;stroke-width:1.0;stroke-dasharray:3.0,3.0;"/><path d="M250.4714,194.0815 L252.7825,191 L250.4714,187.9185 L258.1751,191 L250.4714,194.0815 " fill="#000000" style="stroke:#000000;stroke-width:1.0;"/><ellipse cx="209" cy="191" fill="#000000" rx="3" ry="3" style="stroke:#000000;stroke-width:1.0;"/><path d="M60,191 L73,191 C82.2756,191 92.0801,191 101.6897,191 " fill="none" style="stroke:#000000;stroke-width:1.0;stroke-dasharray:3.0,3.0;"/><path d="M101.6897,194.0604 L103.985,191 L101.6897,187.9396 L109.3408,191 L101.6897,194.0604 " fill="#000000" style="stroke:#000000;stroke-width:1.0;"/><ellipse cx="60" cy="191" fill="#000000" rx="3" ry="3" style="stroke:#000000;stroke-width:1.0;"/><!--SRC=[xLTTRzem57tthxZAKokLaAI0sZmL2aCmM15VBzKUJEAcHi6ER0U6AlxxRAh2A0rDgtMhDlpcUq-ExvUFd2kfi51JoHb23mZqiaAiiEN3usvjuPCf2LHL2BpKZjkDmwo7dTqly5QuGxA3m375KhkjdkkTbqkUTVOoBY1C4V4DpuW1Dsgjmh0n65fxuDN-znPb8PtJCCLndyHOKSxaFKtaNWBPYMoen82d8Y2P-UJFV0TDVkZa68whGK2aD05c1fS_s8oO6i_F6lLRfgRtIYNIBnONYuKznK5WSn4LGqwBhcExZbifJjTcB6tFyHpRATcEurgvJb-zYlf-4B4worFiuJ9P3yTUCRE3F41iYIS-GUw882mWOMtvCbK6pL-OemXlipRtf5cjEPlrIhVULcMPJcRq3vKN7HwNPyVy5Xs20dHI5e5SuCb7Q9B4ioGcdrMFSghokwhn_f7RwlZ_SwCtdTXC8mGyZZM3kNcVeYs9u8hhe8uoUvJPt39xVJDkrTrB6AWqN7w8m1hYutll-Dux2j4_9qHerxv2AtH5MFZuxzgBCLEZRWVcH9XmmJK3V6wx9uEKGHipy2x1zVpoXL-kGBCx1EC-HIVDNWVakaqGKga4dQH6EqvH6yynz5Ecw8puS9CGrgv_VJ90Wysfu6ocjGgrnzqje58grAY20H4w4XXtKPtSuJHM-ek0XvH5Feo6NmeNg8DPbE98SnE6hhdc5KiVchMV]--></g></svg>