<?xml version="1.0" encoding="UTF-8" standalone="no"?><svg xmlns="http://www.w3.org/2000/svg" xmlns:xlink="http://www.w3.org/1999/xlink" contentStyleType="text/css" height="327px" preserveAspectRatio="none" style="width:1351px;height:327px;background:#FFFFFF;" version="1.1" viewBox="0 0 1351 327" width="1351px" zoomAndPan="magnify"><defs/><g><rect fill="#F1F1F1" height="21.6094" rx="5" ry="5" style="stroke:#F1F1F1;stroke-width:1.5;" width="62" x="10" y="204"/><text fill="#000000" font-family="sans-serif" font-size="14" font-weight="bold" lengthAdjust="spacing" textLength="30" x="15" y="220.5332">data</text><text fill="#000000" font-family="sans-serif" font-size="14" lengthAdjust="spacing" textLength="12" x="55" y="220.5332">   </text><line style="stroke:#000000;stroke-width:1.0;" x1="50" x2="50" y1="204" y2="225.6094"/><rect fill="none" height="21.6094" rx="5" ry="5" style="stroke:#000000;stroke-width:1.5;" width="62" x="10" y="204"/><rect fill="#F1F1F1" height="21.6094" rx="5" ry="5" style="stroke:#F1F1F1;stroke-width:1.5;" width="112" x="109" y="204"/><text fill="#000000" font-family="sans-serif" font-size="14" font-weight="bold" lengthAdjust="spacing" textLength="80" x="114" y="220.5332">objectArray</text><text fill="#000000" font-family="sans-serif" font-size="14" lengthAdjust="spacing" textLength="12" x="204" y="220.5332">   </text><line style="stroke:#000000;stroke-width:1.0;" x1="199" x2="199" y1="204" y2="225.6094"/><rect fill="none" height="21.6094" rx="5" ry="5" style="stroke:#000000;stroke-width:1.5;" width="112" x="109" y="204"/><rect fill="#F1F1F1" height="43.2188" rx="5" ry="5" style="stroke:#F1F1F1;stroke-width:1.5;" width="22" x="258" y="193.5"/><text fill="#000000" font-family="sans-serif" font-size="14" lengthAdjust="spacing" textLength="12" x="263" y="210.0332">   </text><line style="stroke:#000000;stroke-width:1.0;" x1="258" x2="280" y1="215.1094" y2="215.1094"/><text fill="#000000" font-family="sans-serif" font-size="14" lengthAdjust="spacing" textLength="12" x="263" y="231.6426">   </text><rect fill="none" height="43.2188" rx="5" ry="5" style="stroke:#000000;stroke-width:1.5;" width="22" x="258" y="193.5"/><rect fill="#F1F1F1" height="43.2188" rx="5" ry="5" style="stroke:#F1F1F1;stroke-width:1.5;" width="197" x="319" y="152.5"/><text fill="#000000" font-family="sans-serif" font-size="14" font-weight="bold" lengthAdjust="spacing" textLength="165" x="324" y="169.0332">minimalPublicAttributes</text><text fill="#000000" font-family="sans-serif" font-size="14" lengthAdjust="spacing" textLength="12" x="499" y="169.0332">   </text><line style="stroke:#000000;stroke-width:1.0;" x1="494" x2="494" y1="152.5" y2="174.1094"/><line style="stroke:#000000;stroke-width:1.0;" x1="319" x2="516" y1="174.1094" y2="174.1094"/><text fill="#000000" font-family="sans-serif" font-size="14" font-weight="bold" lengthAdjust="spacing" textLength="139" x="324" y="190.6426">organismDescriptor</text><text fill="#000000" font-family="sans-serif" font-size="14" lengthAdjust="spacing" textLength="12" x="499" y="190.6426">   </text><line style="stroke:#000000;stroke-width:1.0;" x1="494" x2="494" y1="174.1094" y2="195.7188"/><rect fill="none" height="43.2188" rx="5" ry="5" style="stroke:#000000;stroke-width:1.5;" width="197" x="319" y="152.5"/><rect fill="#F1F1F1" height="21.6094" rx="5" ry="5" style="stroke:#F1F1F1;stroke-width:1.5;" width="95" x="575" y="112"/><text fill="#000000" font-family="sans-serif" font-size="14" font-weight="bold" lengthAdjust="spacing" textLength="63" x="580" y="128.5332">diseases</text><text fill="#000000" font-family="sans-serif" font-size="14" lengthAdjust="spacing" textLength="12" x="653" y="128.5332">   </text><line style="stroke:#000000;stroke-width:1.0;" x1="648" x2="648" y1="112" y2="133.6094"/><rect fill="none" height="21.6094" rx="5" ry="5" style="stroke:#000000;stroke-width:1.5;" width="95" x="575" y="112"/><rect fill="#F1F1F1" height="108.0469" rx="5" ry="5" style="stroke:#F1F1F1;stroke-width:1.5;" width="22" x="808" y="48"/><text fill="#000000" font-family="sans-serif" font-size="14" lengthAdjust="spacing" textLength="12" x="813" y="64.5332">   </text><line style="stroke:#000000;stroke-width:1.0;" x1="808" x2="830" y1="69.6094" y2="69.6094"/><text fill="#000000" font-family="sans-serif" font-size="14" lengthAdjust="spacing" textLength="12" x="813" y="86.1426">   </text><line style="stroke:#000000;stroke-width:1.0;" x1="808" x2="830" y1="91.2188" y2="91.2188"/><text fill="#000000" font-family="sans-serif" font-size="14" lengthAdjust="spacing" textLength="12" x="813" y="107.752">   </text><line style="stroke:#000000;stroke-width:1.0;" x1="808" x2="830" y1="112.8281" y2="112.8281"/><text fill="#000000" font-family="sans-serif" font-size="14" lengthAdjust="spacing" textLength="12" x="813" y="129.3613">   </text><line style="stroke:#000000;stroke-width:1.0;" x1="808" x2="830" y1="134.4375" y2="134.4375"/><text fill="#000000" font-family="sans-serif" font-size="14" lengthAdjust="spacing" textLength="12" x="813" y="150.9707">   </text><rect fill="none" height="108.0469" rx="5" ry="5" style="stroke:#000000;stroke-width:1.5;" width="22" x="808" y="48"/><rect fill="#F1F1F1" height="21.6094" rx="5" ry="5" style="stroke:#F1F1F1;stroke-width:1.5;" width="87" x="993" y="10"/><text fill="#000000" font-family="sans-serif" font-size="14" font-weight="bold" lengthAdjust="spacing" textLength="55" x="998" y="26.5332">disease</text><text fill="#000000" font-family="sans-serif" font-size="14" lengthAdjust="spacing" textLength="12" x="1063" y="26.5332">   </text><line style="stroke:#000000;stroke-width:1.0;" x1="1058" x2="1058" y1="10" y2="31.6094"/><rect fill="none" height="21.6094" rx="5" ry="5" style="stroke:#000000;stroke-width:1.5;" width="87" x="993" y="10"/><rect fill="#F1F1F1" height="21.6094" rx="5" ry="5" style="stroke:#F1F1F1;stroke-width:1.5;" width="177" x="1162" y="10"/><text fill="#000000" font-family="sans-serif" font-size="14" font-weight="bold" lengthAdjust="spacing" textLength="45" x="1167" y="26.5332">termId</text><text fill="#000000" font-family="sans-serif" font-size="14" lengthAdjust="spacing" textLength="112" x="1222" y="26.5332">MONDO:0100096</text><line style="stroke:#000000;stroke-width:1.0;" x1="1217" x2="1217" y1="10" y2="31.6094"/><rect fill="none" height="21.6094" rx="5" ry="5" style="stroke:#000000;stroke-width:1.5;" width="177" x="1162" y="10"/><rect fill="#F1F1F1" height="21.6094" rx="5" ry="5" style="stroke:#F1F1F1;stroke-width:1.5;" width="87" x="993" y="50"/><text fill="#000000" font-family="sans-serif" font-size="14" font-weight="bold" lengthAdjust="spacing" textLength="55" x="998" y="66.5332">disease</text><text fill="#000000" font-family="sans-serif" font-size="14" lengthAdjust="spacing" textLength="12" x="1063" y="66.5332">   </text><line style="stroke:#000000;stroke-width:1.0;" x1="1058" x2="1058" y1="50" y2="71.6094"/><rect fill="none" height="21.6094" rx="5" ry="5" style="stroke:#000000;stroke-width:1.5;" width="87" x="993" y="50"/><rect fill="#F1F1F1" height="21.6094" rx="5" ry="5" style="stroke:#F1F1F1;stroke-width:1.5;" width="154" x="1173.5" y="50"/><text fill="#000000" font-family="sans-serif" font-size="14" font-weight="bold" lengthAdjust="spacing" textLength="45" x="1178.5" y="66.5332">termId</text><text fill="#000000" font-family="sans-serif" font-size="14" lengthAdjust="spacing" textLength="89" x="1233.5" y="66.5332">EFO:0000400</text><line style="stroke:#000000;stroke-width:1.0;" x1="1228.5" x2="1228.5" y1="50" y2="71.6094"/><rect fill="none" height="21.6094" rx="5" ry="5" style="stroke:#000000;stroke-width:1.5;" width="154" x="1173.5" y="50"/><rect fill="#F1F1F1" height="21.6094" rx="5" ry="5" style="stroke:#F1F1F1;stroke-width:1.5;" width="87" x="993" y="90"/><text fill="#000000" font-family="sans-serif" font-size="14" font-weight="bold" lengthAdjust="spacing" textLength="55" x="998" y="106.5332">disease</text><text fill="#000000" font-family="sans-serif" font-size="14" lengthAdjust="spacing" textLength="12" x="1063" y="106.5332">   </text><line style="stroke:#000000;stroke-width:1.0;" x1="1058" x2="1058" y1="90" y2="111.6094"/><rect fill="none" height="21.6094" rx="5" ry="5" style="stroke:#000000;stroke-width:1.5;" width="87" x="993" y="90"/><rect fill="#F1F1F1" height="21.6094" rx="5" ry="5" style="stroke:#F1F1F1;stroke-width:1.5;" width="154" x="1173.5" y="90"/><text fill="#000000" font-family="sans-serif" font-size="14" font-weight="bold" lengthAdjust="spacing" textLength="45" x="1178.5" y="106.5332">termId</text><text fill="#000000" font-family="sans-serif" font-size="14" lengthAdjust="spacing" textLength="89" x="1233.5" y="106.5332">EFO:0000318</text><line style="stroke:#000000;stroke-width:1.0;" x1="1228.5" x2="1228.5" y1="90" y2="111.6094"/><rect fill="none" height="21.6094" rx="5" ry="5" style="stroke:#000000;stroke-width:1.5;" width="154" x="1173.5" y="90"/><rect fill="#F1F1F1" height="21.6094" rx="5" ry="5" style="stroke:#F1F1F1;stroke-width:1.5;" width="87" x="993" y="130"/><text fill="#000000" font-family="sans-serif" font-size="14" font-weight="bold" lengthAdjust="spacing" textLength="55" x="998" y="146.5332">disease</text><text fill="#000000" font-family="sans-serif" font-size="14" lengthAdjust="spacing" textLength="12" x="1063" y="146.5332">   </text><line style="stroke:#000000;stroke-width:1.0;" x1="1058" x2="1058" y1="130" y2="151.6094"/><rect fill="none" height="21.6094" rx="5" ry="5" style="stroke:#000000;stroke-width:1.5;" width="87" x="993" y="130"/><rect fill="#F1F1F1" height="21.6094" rx="5" ry="5" style="stroke:#F1F1F1;stroke-width:1.5;" width="154" x="1173.5" y="130"/><text fill="#000000" font-family="sans-serif" font-size="14" font-weight="bold" lengthAdjust="spacing" textLength="45" x="1178.5" y="146.5332">termId</text><text fill="#000000" font-family="sans-serif" font-size="14" lengthAdjust="spacing" textLength="89" x="1233.5" y="146.5332">EFO:0009909</text><line style="stroke:#000000;stroke-width:1.0;" x1="1228.5" x2="1228.5" y1="130" y2="151.6094"/><rect fill="none" height="21.6094" rx="5" ry="5" style="stroke:#000000;stroke-width:1.5;" width="154" x="1173.5" y="130"/><rect fill="#F1F1F1" height="21.6094" rx="5" ry="5" style="stroke:#F1F1F1;stroke-width:1.5;" width="87" x="993" y="170"/><text fill="#000000" font-family="sans-serif" font-size="14" font-weight="bold" lengthAdjust="spacing" textLength="55" x="998" y="186.5332">disease</text><text fill="#000000" font-family="sans-serif" font-size="14" lengthAdjust="spacing" textLength="12" x="1063" y="186.5332">   </text><line style="stroke:#000000;stroke-width:1.0;" x1="1058" x2="1058" y1="170" y2="191.6094"/><rect fill="none" height="21.6094" rx="5" ry="5" style="stroke:#000000;stroke-width:1.5;" width="87" x="993" y="170"/><rect fill="#F1F1F1" height="21.6094" rx="5" ry="5" style="stroke:#F1F1F1;stroke-width:1.5;" width="154" x="1173.5" y="170"/><text fill="#000000" font-family="sans-serif" font-size="14" font-weight="bold" lengthAdjust="spacing" textLength="45" x="1178.5" y="186.5332">termId</text><text fill="#000000" font-family="sans-serif" font-size="14" lengthAdjust="spacing" textLength="89" x="1233.5" y="186.5332">EFO:0001073</text><line style="stroke:#000000;stroke-width:1.0;" x1="1228.5" x2="1228.5" y1="170" y2="191.6094"/><rect fill="none" height="21.6094" rx="5" ry="5" style="stroke:#000000;stroke-width:1.5;" width="154" x="1173.5" y="170"/><rect fill="#F1F1F1" height="21.6094" rx="5" ry="5" style="stroke:#F1F1F1;stroke-width:1.5;" width="139" x="553" y="174"/><text fill="#000000" font-family="sans-serif" font-size="14" font-weight="bold" lengthAdjust="spacing" textLength="107" x="558" y="190.5332">organismTaxon</text><text fill="#000000" font-family="sans-serif" font-size="14" lengthAdjust="spacing" textLength="12" x="675" y="190.5332">   </text><line style="stroke:#000000;stroke-width:1.0;" x1="670" x2="670" y1="174" y2="195.6094"/><rect fill="none" height="21.6094" rx="5" ry="5" style="stroke:#000000;stroke-width:1.5;" width="139" x="553" y="174"/><rect fill="#F1F1F1" height="21.6094" rx="5" ry="5" style="stroke:#F1F1F1;stroke-width:1.5;" width="171" x="734.5" y="174"/><text fill="#000000" font-family="sans-serif" font-size="14" font-weight="bold" lengthAdjust="spacing" textLength="45" x="739.5" y="190.5332">termId</text><text fill="#000000" font-family="sans-serif" font-size="14" lengthAdjust="spacing" textLength="106" x="794.5" y="190.5332">NCBITaxon:9606</text><line style="stroke:#000000;stroke-width:1.0;" x1="789.5" x2="789.5" y1="174" y2="195.6094"/><rect fill="none" height="21.6094" rx="5" ry="5" style="stroke:#000000;stroke-width:1.5;" width="171" x="734.5" y="174"/><rect fill="#F1F1F1" height="64.8281" rx="5" ry="5" style="stroke:#F1F1F1;stroke-width:1.5;" width="171" x="332" y="223.5"/><text fill="#000000" font-family="sans-serif" font-size="14" font-weight="bold" lengthAdjust="spacing" textLength="139" x="337" y="240.0332">organismDescriptor</text><text fill="#000000" font-family="sans-serif" font-size="14" lengthAdjust="spacing" textLength="12" x="486" y="240.0332">   </text><line style="stroke:#000000;stroke-width:1.0;" x1="481" x2="481" y1="223.5" y2="245.1094"/><line style="stroke:#000000;stroke-width:1.0;" x1="332" x2="503" y1="245.1094" y2="245.1094"/><text fill="#000000" font-family="sans-serif" font-size="14" font-weight="bold" lengthAdjust="spacing" textLength="94" x="337" y="261.6426">sampleStatus</text><text fill="#000000" font-family="sans-serif" font-size="14" lengthAdjust="spacing" textLength="12" x="486" y="261.6426">   </text><line style="stroke:#000000;stroke-width:1.0;" x1="481" x2="481" y1="245.1094" y2="266.7188"/><line style="stroke:#000000;stroke-width:1.0;" x1="332" x2="503" y1="266.7188" y2="266.7188"/><text fill="#000000" font-family="sans-serif" font-size="14" font-weight="bold" lengthAdjust="spacing" textLength="121" x="337" y="283.252">sampleCollection</text><text fill="#000000" font-family="sans-serif" font-size="14" lengthAdjust="spacing" textLength="12" x="486" y="283.252">   </text><line style="stroke:#000000;stroke-width:1.0;" x1="481" x2="481" y1="266.7188" y2="288.3281"/><rect fill="none" height="64.8281" rx="5" ry="5" style="stroke:#000000;stroke-width:1.5;" width="171" x="332" y="223.5"/><rect fill="#F1F1F1" height="21.6094" rx="5" ry="5" style="stroke:#F1F1F1;stroke-width:1.5;" width="139" x="553" y="214"/><text fill="#000000" font-family="sans-serif" font-size="14" font-weight="bold" lengthAdjust="spacing" textLength="107" x="558" y="230.5332">organismTaxon</text><text fill="#000000" font-family="sans-serif" font-size="14" lengthAdjust="spacing" textLength="12" x="675" y="230.5332">   </text><line style="stroke:#000000;stroke-width:1.0;" x1="670" x2="670" y1="214" y2="235.6094"/><rect fill="none" height="21.6094" rx="5" ry="5" style="stroke:#000000;stroke-width:1.5;" width="139" x="553" y="214"/><rect fill="#F1F1F1" height="21.6094" rx="5" ry="5" style="stroke:#F1F1F1;stroke-width:1.5;" width="171" x="734.5" y="214"/><text fill="#000000" font-family="sans-serif" font-size="14" font-weight="bold" lengthAdjust="spacing" textLength="45" x="739.5" y="230.5332">termId</text><text fill="#000000" font-family="sans-serif" font-size="14" lengthAdjust="spacing" textLength="106" x="794.5" y="230.5332">NCBITaxon:9606</text><line style="stroke:#000000;stroke-width:1.0;" x1="789.5" x2="789.5" y1="214" y2="235.6094"/><rect fill="none" height="21.6094" rx="5" ry="5" style="stroke:#000000;stroke-width:1.5;" width="171" x="734.5" y="214"/><rect fill="#F1F1F1" height="21.6094" rx="5" ry="5" style="stroke:#F1F1F1;stroke-width:1.5;" width="22" x="610.5" y="254"/><text fill="#000000" font-family="sans-serif" font-size="14" lengthAdjust="spacing" textLength="12" x="615.5" y="270.5332">   </text><rect fill="none" height="21.6094" rx="5" ry="5" style="stroke:#000000;stroke-width:1.5;" width="22" x="610.5" y="254"/><rect fill="#F1F1F1" height="21.6094" rx="5" ry="5" style="stroke:#F1F1F1;stroke-width:1.5;" width="180" x="730" y="254"/><text fill="#000000" font-family="sans-serif" font-size="14" font-weight="bold" lengthAdjust="spacing" textLength="148" x="735" y="270.5332">conditionUnderStudy</text><text fill="#000000" font-family="sans-serif" font-size="14" lengthAdjust="spacing" textLength="12" x="893" y="270.5332">   </text><line style="stroke:#000000;stroke-width:1.0;" x1="888" x2="888" y1="254" y2="275.6094"/><rect fill="none" height="21.6094" rx="5" ry="5" style="stroke:#000000;stroke-width:1.5;" width="180" x="730" y="254"/><rect fill="#F1F1F1" height="21.6094" rx="5" ry="5" style="stroke:#F1F1F1;stroke-width:1.5;" width="177" x="948" y="254"/><text fill="#000000" font-family="sans-serif" font-size="14" font-weight="bold" lengthAdjust="spacing" textLength="45" x="953" y="270.5332">termId</text><text fill="#000000" font-family="sans-serif" font-size="14" lengthAdjust="spacing" textLength="112" x="1008" y="270.5332">MONDO:0100096</text><line style="stroke:#000000;stroke-width:1.0;" x1="1003" x2="1003" y1="254" y2="275.6094"/><rect fill="none" height="21.6094" rx="5" ry="5" style="stroke:#000000;stroke-width:1.5;" width="177" x="948" y="254"/><rect fill="#F1F1F1" height="21.6094" rx="5" ry="5" style="stroke:#F1F1F1;stroke-width:1.5;" width="122" x="561.5" y="294"/><text fill="#000000" font-family="sans-serif" font-size="14" font-weight="bold" lengthAdjust="spacing" textLength="90" x="566.5" y="310.5332">samplingSite</text><text fill="#000000" font-family="sans-serif" font-size="14" lengthAdjust="spacing" textLength="12" x="666.5" y="310.5332">   </text><line style="stroke:#000000;stroke-width:1.0;" x1="661.5" x2="661.5" y1="294" y2="315.6094"/><rect fill="none" height="21.6094" rx="5" ry="5" style="stroke:#000000;stroke-width:1.5;" width="122" x="561.5" y="294"/><rect fill="#F1F1F1" height="21.6094" rx="5" ry="5" style="stroke:#F1F1F1;stroke-width:1.5;" width="182" x="729" y="294"/><text fill="#000000" font-family="sans-serif" font-size="14" font-weight="bold" lengthAdjust="spacing" textLength="45" x="734" y="310.5332">termId</text><text fill="#000000" font-family="sans-serif" font-size="14" lengthAdjust="spacing" textLength="117" x="789" y="310.5332">UBERON:0007196</text><line style="stroke:#000000;stroke-width:1.0;" x1="784" x2="784" y1="294" y2="315.6094"/><rect fill="none" height="21.6094" rx="5" ry="5" style="stroke:#000000;stroke-width:1.5;" width="182" x="729" y="294"/><path d="M1069,21 L1082,21 C1105.5549,21 1130.9676,21 1154.7216,21 " fill="none" style="stroke:#000000;stroke-width:1.0;stroke-dasharray:3.0,3.0;"/><path d="M1154.7216,24.0598 L1157.0165,21 L1154.7216,17.9402 L1162.3713,21 L1154.7216,24.0598 " fill="#000000" style="stroke:#000000;stroke-width:1.0;"/><ellipse cx="1069" cy="21" fill="#000000" rx="3" ry="3" style="stroke:#000000;stroke-width:1.0;"/><path d="M820.5,58 L833.5,58 C862.3943,58 935.5777,43.2383 985.5731,32.3629 " fill="none" style="stroke:#000000;stroke-width:1.0;stroke-dasharray:3.0,3.0;"/><path d="M986.2298,35.3657 L987.8253,31.8704 L984.9165,29.3601 L993.0802,30.7213 L986.2298,35.3657 " fill="#000000" style="stroke:#000000;stroke-width:1.0;"/><ellipse cx="820.5" cy="58" fill="#000000" rx="3" ry="3" style="stroke:#000000;stroke-width:1.0;"/><path d="M1069,61 L1082,61 C1109.46,61 1139.4446,61 1166.383,61 " fill="none" style="stroke:#000000;stroke-width:1.0;stroke-dasharray:3.0,3.0;"/><path d="M1166.383,64.005 L1168.6368,61 L1166.383,57.995 L1173.8956,61 L1166.383,64.005 " fill="#000000" style="stroke:#000000;stroke-width:1.0;"/><ellipse cx="1069" cy="61" fill="#000000" rx="3" ry="3" style="stroke:#000000;stroke-width:1.0;"/><path d="M820.5,80 L833.5,80 C885.5812,80 944.8687,73.693 985.7705,68.3465 " fill="none" style="stroke:#000000;stroke-width:1.0;stroke-dasharray:3.0,3.0;"/><path d="M986.1784,71.4155 L988.0722,68.0406 L985.3626,65.2776 L993.4428,67.3267 L986.1784,71.4155 " fill="#000000" style="stroke:#000000;stroke-width:1.0;"/><ellipse cx="820.5" cy="80" fill="#000000" rx="3" ry="3" style="stroke:#000000;stroke-width:1.0;"/><path d="M1069,101 L1082,101 C1109.46,101 1139.4446,101 1166.383,101 " fill="none" style="stroke:#000000;stroke-width:1.0;stroke-dasharray:3.0,3.0;"/><path d="M1166.383,104.005 L1168.6368,101 L1166.383,97.995 L1173.8956,101 L1166.383,104.005 " fill="#000000" style="stroke:#000000;stroke-width:1.0;"/><ellipse cx="1069" cy="101" fill="#000000" rx="3" ry="3" style="stroke:#000000;stroke-width:1.0;"/><path d="M820.5,101 L833.5,101 C885.3534,101 944.6756,101 985.6478,101 " fill="none" style="stroke:#000000;stroke-width:1.0;stroke-dasharray:3.0,3.0;"/><path d="M985.6478,104.0745 L987.9536,101 L985.6478,97.9255 L993.334,101 L985.6478,104.0745 " fill="#000000" style="stroke:#000000;stroke-width:1.0;"/><ellipse cx="820.5" cy="101" fill="#000000" rx="3" ry="3" style="stroke:#000000;stroke-width:1.0;"/><path d="M1069,141 L1082,141 C1109.46,141 1139.4446,141 1166.383,141 " fill="none" style="stroke:#000000;stroke-width:1.0;stroke-dasharray:3.0,3.0;"/><path d="M1166.383,144.005 L1168.6368,141 L1166.383,137.995 L1173.8956,141 L1166.383,144.005 " fill="#000000" style="stroke:#000000;stroke-width:1.0;"/><ellipse cx="1069" cy="141" fill="#000000" rx="3" ry="3" style="stroke:#000000;stroke-width:1.0;"/><path d="M820.5,123 L833.5,123 C885.5579,123 944.849,128.9751 985.758,134.0401 " fill="none" style="stroke:#000000;stroke-width:1.0;stroke-dasharray:3.0,3.0;"/><path d="M985.3715,137.1096 L988.0601,134.33 L986.1444,130.9706 L993.4317,135.0063 L985.3715,137.1096 " fill="#000000" style="stroke:#000000;stroke-width:1.0;"/><ellipse cx="820.5" cy="123" fill="#000000" rx="3" ry="3" style="stroke:#000000;stroke-width:1.0;"/><path d="M1069,181 L1082,181 C1109.46,181 1139.4446,181 1166.383,181 " fill="none" style="stroke:#000000;stroke-width:1.0;stroke-dasharray:3.0,3.0;"/><path d="M1166.383,184.005 L1168.6368,181 L1166.383,177.995 L1173.8956,181 L1166.383,184.005 " fill="#000000" style="stroke:#000000;stroke-width:1.0;"/><ellipse cx="1069" cy="181" fill="#000000" rx="3" ry="3" style="stroke:#000000;stroke-width:1.0;"/><path d="M820.5,145 L833.5,145 C862.3694,145 935.5594,159.3628 985.563,169.9442 " fill="none" style="stroke:#000000;stroke-width:1.0;stroke-dasharray:3.0,3.0;"/><path d="M984.9241,172.9475 L987.8155,170.4234 L986.2019,166.9409 L993.0713,171.5414 L984.9241,172.9475 " fill="#000000" style="stroke:#000000;stroke-width:1.0;"/><ellipse cx="820.5" cy="145" fill="#000000" rx="3" ry="3" style="stroke:#000000;stroke-width:1.0;"/><path d="M659,123 L672,123 C718.8485,123 773.2389,112.4882 801.0488,106.3389 " fill="none" style="stroke:#000000;stroke-width:1.0;stroke-dasharray:3.0,3.0;"/><path d="M801.7205,109.3092 L803.2765,105.8351 L800.3771,103.3686 L808.4745,104.6597 L801.7205,109.3092 " fill="#000000" style="stroke:#000000;stroke-width:1.0;"/><ellipse cx="659" cy="123" fill="#000000" rx="3" ry="3" style="stroke:#000000;stroke-width:1.0;"/><path d="M504,163 L517,163 C546.2683,163 577.2965,149.2599 597.9681,137.8856 " fill="none" style="stroke:#000000;stroke-width:1.0;stroke-dasharray:3.0,3.0;"/><path d="M599.4654,140.524 L599.9468,136.7626 L596.4707,135.2473 L604.5639,134.1422 L599.4654,140.524 " fill="#000000" style="stroke:#000000;stroke-width:1.0;"/><ellipse cx="504" cy="163" fill="#000000" rx="3" ry="3" style="stroke:#000000;stroke-width:1.0;"/><path d="M680,185 L693,185 C704.0796,185 715.705,185 727.2308,185 " fill="none" style="stroke:#000000;stroke-width:1.0;stroke-dasharray:3.0,3.0;"/><path d="M727.2308,188.0212 L729.4967,185 L727.2308,181.9788 L734.7838,185 L727.2308,188.0212 " fill="#000000" style="stroke:#000000;stroke-width:1.0;"/><ellipse cx="680" cy="185" fill="#000000" rx="3" ry="3" style="stroke:#000000;stroke-width:1.0;"/><path d="M504,185 L517,185 C526.2776,185 536.0164,185 545.6663,185 " fill="none" style="stroke:#000000;stroke-width:1.0;stroke-dasharray:3.0,3.0;"/><path d="M545.6663,188.0838 L547.9791,185 L545.6663,181.9162 L553.3757,185 L545.6663,188.0838 " fill="#000000" style="stroke:#000000;stroke-width:1.0;"/><ellipse cx="504" cy="185" fill="#000000" rx="3" ry="3" style="stroke:#000000;stroke-width:1.0;"/><path d="M270,204 L283,204 C301.8362,204 321.8099,201.1422 340.4245,197.1908 " fill="none" style="stroke:#000000;stroke-width:1.0;stroke-dasharray:3.0,3.0;"/><path d="M341.0754,200.1249 L342.6251,196.7026 L339.7736,194.2567 L347.7597,195.5635 L341.0754,200.1249 " fill="#000000" style="stroke:#000000;stroke-width:1.0;"/><ellipse cx="270" cy="204" fill="#000000" rx="3" ry="3" style="stroke:#000000;stroke-width:1.0;"/><path d="M680,225 L693,225 C704.0796,225 715.705,225 727.2308,225 " fill="none" style="stroke:#000000;stroke-width:1.0;stroke-dasharray:3.0,3.0;"/><path d="M727.2308,228.0212 L729.4967,225 L727.2308,221.9788 L734.7838,225 L727.2308,228.0212 " fill="#000000" style="stroke:#000000;stroke-width:1.0;"/><ellipse cx="680" cy="225" fill="#000000" rx="3" ry="3" style="stroke:#000000;stroke-width:1.0;"/><path d="M492,234 L505,234 C518.2358,234 532.289,233.4203 545.8924,232.5552 " fill="none" style="stroke:#000000;stroke-width:1.0;stroke-dasharray:3.0,3.0;"/><path d="M546.0956,235.5565 L548.1433,232.4028 L545.6891,229.554 L553.3955,232.0471 L546.0956,235.5565 " fill="#000000" style="stroke:#000000;stroke-width:1.0;"/><ellipse cx="492" cy="234" fill="#000000" rx="3" ry="3" style="stroke:#000000;stroke-width:1.0;"/><path d="M898.5,265 L911.5,265 C920.9733,265 930.852,265 940.7197,265 " fill="none" style="stroke:#000000;stroke-width:1.0;stroke-dasharray:3.0,3.0;"/><path d="M940.7197,268.0147 L942.9807,265 L940.7197,261.9853 L948.2565,265 L940.7197,268.0147 " fill="#000000" style="stroke:#000000;stroke-width:1.0;"/><ellipse cx="898.5" cy="265" fill="#000000" rx="3" ry="3" style="stroke:#000000;stroke-width:1.0;"/><path d="M622.292,265 L635.292,265 C653.1017,265 687.7377,265 722.2152,265 " fill="none" style="stroke:#000000;stroke-width:1.0;stroke-dasharray:3.0,3.0;"/><path d="M722.2152,268.125 L724.559,265 L722.2152,261.875 L730.0278,265 L722.2152,268.125 " fill="#000000" style="stroke:#000000;stroke-width:1.0;"/><ellipse cx="622.292" cy="265" fill="#000000" rx="3" ry="3" style="stroke:#000000;stroke-width:1.0;"/><path d="M492,255 L505,255 C539.6794,255 579.9316,259.4155 603.0378,262.3783 " fill="none" style="stroke:#000000;stroke-width:1.0;stroke-dasharray:3.0,3.0;"/><path d="M602.6318,265.4563 L605.3463,262.6828 L603.4438,259.3003 L610.7328,263.3933 L602.6318,265.4563 " fill="#000000" style="stroke:#000000;stroke-width:1.0;"/><ellipse cx="492" cy="255" fill="#000000" rx="3" ry="3" style="stroke:#000000;stroke-width:1.0;"/><path d="M672,305 L685,305 C696.8924,305 709.3764,305 721.7457,305 " fill="none" style="stroke:#000000;stroke-width:1.0;stroke-dasharray:3.0,3.0;"/><path d="M721.7457,308.0722 L724.0499,305 L721.7457,301.9278 L729.4263,305 L721.7457,308.0722 " fill="#000000" style="stroke:#000000;stroke-width:1.0;"/><ellipse cx="672" cy="305" fill="#000000" rx="3" ry="3" style="stroke:#000000;stroke-width:1.0;"/><path d="M492,278 L505,278 C518.6719,278 549.0493,285.0883 575.424,292.0011 " fill="none" style="stroke:#000000;stroke-width:1.0;stroke-dasharray:3.0,3.0;"/><path d="M574.6483,294.9273 L577.6187,292.5828 L576.1996,289.0748 L582.7396,293.9402 L574.6483,294.9273 " fill="#000000" style="stroke:#000000;stroke-width:1.0;"/><ellipse cx="492" cy="278" fill="#000000" rx="3" ry="3" style="stroke:#000000;stroke-width:1.0;"/><path d="M270,226 L283,226 C296.5775,226 310.746,227.4848 324.5705,229.7938 " fill="none" style="stroke:#000000;stroke-width:1.0;stroke-dasharray:3.0,3.0;"/><path d="M324.0251,232.8494 L326.8622,230.2028 L325.1158,226.7382 L332.2094,231.1572 L324.0251,232.8494 " fill="#000000" style="stroke:#000000;stroke-width:1.0;"/><ellipse cx="270" cy="226" fill="#000000" rx="3" ry="3" style="stroke:#000000;stroke-width:1.0;"/><path d="M209,215 L222,215 C231.374,215 241.7885,215 250.4714,215 " fill="none" style="stroke:#000000;stroke-width:1.0;stroke-dasharray:3.0,3.0;"/><path d="M250.4714,218.0815 L252.7825,215 L250.4714,211.9185 L258.1751,215 L250.4714,218.0815 " fill="#000000" style="stroke:#000000;stroke-width:1.0;"/><ellipse cx="209" cy="215" fill="#000000" rx="3" ry="3" style="stroke:#000000;stroke-width:1.0;"/><path d="M60,215 L73,215 C82.2756,215 92.0801,215 101.6897,215 " fill="none" style="stroke:#000000;stroke-width:1.0;stroke-dasharray:3.0,3.0;"/><path d="M101.6897,218.0604 L103.985,215 L101.6897,211.9396 L109.3408,215 L101.6897,218.0604 " fill="#000000" style="stroke:#000000;stroke-width:1.0;"/><ellipse cx="60" cy="215" fill="#000000" rx="3" ry="3" style="stroke:#000000;stroke-width:1.0;"/><!--SRC=[rLLDR-8m4BtxLrWvjL9RET1IabFBHr5P0gY1NgeUJE8YLyaOsHEq2EM_ru3waMx2iZsiX6-UUJD-R-pnt1Za6b-D0aBMXDhbn1ovuzFTRcjHirSHuQtMV6KTJn-EpLeNTbjuAa6cF1bdiqH6juXQpZ8Kff2p411B8xZP8fvA4UK7bUMeFAG0Hg7J-zXYdM0qx8nyvZB6l8QpDpAlzEPd_vbrzyvojkkIiQFZN7URnyRPyvXtR9nTTbt_CUTIppCvG9kZz9o3D6b7c4ZB1IfTtVVls0d_hM2lpY_wXktM_JR0zngiecN_552qV2E-FXuP9HKtF5qa8aIEMVKFkeTJf22MA1LC8HOwn2nU_VND_ViFcX-eyBbIOLibYHr3Sa-DTqW9yr2YEFGcfgtkmsYuwPbhr_lfWoB5Bib9Jcu4nBl1Eauuu3GOqANGnlAdxaMDrUeNxacO0Urpe3MFkZN_gkbVDMWlcD2D-vISzCO3QbIc8q7jRx0Rf3R-bFJvajE7352cmgUZXO1-vzUxWNPXARM2L02I_cFm2MXSdhSaqb1eouG-1gGZNdYMe8s8L6phvjFfvEwyIGOSvXcVszm2I5lPl7hbqrxh3G00]--></g></svg>