<?xml version="1.0" encoding="UTF-8" standalone="no"?><svg xmlns="http://www.w3.org/2000/svg" xmlns:xlink="http://www.w3.org/1999/xlink" contentStyleType="text/css" height="433px" preserveAspectRatio="none" style="width:1433px;height:433px;background:#FFFFFF;" version="1.1" viewBox="0 0 1433 433" width="1433px" zoomAndPan="magnify"><defs/><g><rect fill="#F1F1F1" height="21.6094" rx="5" ry="5" style="stroke:#F1F1F1;stroke-width:1.5;" width="62" x="10" y="261"/><text fill="#000000" font-family="sans-serif" font-size="14" font-weight="bold" lengthAdjust="spacing" textLength="30" x="15" y="277.5332">data</text><text fill="#000000" font-family="sans-serif" font-size="14" lengthAdjust="spacing" textLength="12" x="55" y="277.5332">   </text><line style="stroke:#000000;stroke-width:1.0;" x1="50" x2="50" y1="261" y2="282.6094"/><rect fill="none" height="21.6094" rx="5" ry="5" style="stroke:#000000;stroke-width:1.5;" width="62" x="10" y="261"/><rect fill="#F1F1F1" height="21.6094" rx="5" ry="5" style="stroke:#F1F1F1;stroke-width:1.5;" width="112" x="109" y="261"/><text fill="#000000" font-family="sans-serif" font-size="14" font-weight="bold" lengthAdjust="spacing" textLength="80" x="114" y="277.5332">objectArray</text><text fill="#000000" font-family="sans-serif" font-size="14" lengthAdjust="spacing" textLength="12" x="204" y="277.5332">   </text><line style="stroke:#000000;stroke-width:1.0;" x1="199" x2="199" y1="261" y2="282.6094"/><rect fill="none" height="21.6094" rx="5" ry="5" style="stroke:#000000;stroke-width:1.5;" width="112" x="109" y="261"/><rect fill="#F1F1F1" height="64.8281" rx="5" ry="5" style="stroke:#F1F1F1;stroke-width:1.5;" width="22" x="258" y="239.5"/><text fill="#000000" font-family="sans-serif" font-size="14" lengthAdjust="spacing" textLength="12" x="263" y="256.0332">   </text><line style="stroke:#000000;stroke-width:1.0;" x1="258" x2="280" y1="261.1094" y2="261.1094"/><text fill="#000000" font-family="sans-serif" font-size="14" lengthAdjust="spacing" textLength="12" x="263" y="277.6426">   </text><line style="stroke:#000000;stroke-width:1.0;" x1="258" x2="280" y1="282.7188" y2="282.7188"/><text fill="#000000" font-family="sans-serif" font-size="14" lengthAdjust="spacing" textLength="12" x="263" y="299.252">   </text><rect fill="none" height="64.8281" rx="5" ry="5" style="stroke:#000000;stroke-width:1.5;" width="22" x="258" y="239.5"/><rect fill="#F1F1F1" height="43.2188" rx="5" ry="5" style="stroke:#F1F1F1;stroke-width:1.5;" width="197" x="319" y="178.5"/><text fill="#000000" font-family="sans-serif" font-size="14" font-weight="bold" lengthAdjust="spacing" textLength="165" x="324" y="195.0332">minimalPublicAttributes</text><text fill="#000000" font-family="sans-serif" font-size="14" lengthAdjust="spacing" textLength="12" x="499" y="195.0332">   </text><line style="stroke:#000000;stroke-width:1.0;" x1="494" x2="494" y1="178.5" y2="200.1094"/><line style="stroke:#000000;stroke-width:1.0;" x1="319" x2="516" y1="200.1094" y2="200.1094"/><text fill="#000000" font-family="sans-serif" font-size="14" font-weight="bold" lengthAdjust="spacing" textLength="139" x="324" y="216.6426">organismDescriptor</text><text fill="#000000" font-family="sans-serif" font-size="14" lengthAdjust="spacing" textLength="12" x="499" y="216.6426">   </text><line style="stroke:#000000;stroke-width:1.0;" x1="494" x2="494" y1="200.1094" y2="221.7188"/><rect fill="none" height="43.2188" rx="5" ry="5" style="stroke:#000000;stroke-width:1.5;" width="197" x="319" y="178.5"/><rect fill="#F1F1F1" height="43.2188" rx="5" ry="5" style="stroke:#F1F1F1;stroke-width:1.5;" width="206" x="553" y="138.5"/><text fill="#000000" font-family="sans-serif" font-size="14" font-weight="bold" lengthAdjust="spacing" textLength="174" x="558" y="155.0332">phenotypicAbnormalities</text><text fill="#000000" font-family="sans-serif" font-size="14" lengthAdjust="spacing" textLength="12" x="742" y="155.0332">   </text><line style="stroke:#000000;stroke-width:1.0;" x1="737" x2="737" y1="138.5" y2="160.1094"/><line style="stroke:#000000;stroke-width:1.0;" x1="553" x2="759" y1="160.1094" y2="160.1094"/><text fill="#000000" font-family="sans-serif" font-size="14" font-weight="bold" lengthAdjust="spacing" textLength="63" x="558" y="176.6426">diseases</text><text fill="#000000" font-family="sans-serif" font-size="14" lengthAdjust="spacing" textLength="12" x="742" y="176.6426">   </text><line style="stroke:#000000;stroke-width:1.0;" x1="737" x2="737" y1="160.1094" y2="181.7188"/><rect fill="none" height="43.2188" rx="5" ry="5" style="stroke:#000000;stroke-width:1.5;" width="206" x="553" y="138.5"/><rect fill="#F1F1F1" height="86.4375" rx="5" ry="5" style="stroke:#F1F1F1;stroke-width:1.5;" width="22" x="875" y="47"/><text fill="#000000" font-family="sans-serif" font-size="14" lengthAdjust="spacing" textLength="12" x="880" y="63.5332">   </text><line style="stroke:#000000;stroke-width:1.0;" x1="875" x2="897" y1="68.6094" y2="68.6094"/><text fill="#000000" font-family="sans-serif" font-size="14" lengthAdjust="spacing" textLength="12" x="880" y="85.1426">   </text><line style="stroke:#000000;stroke-width:1.0;" x1="875" x2="897" y1="90.2188" y2="90.2188"/><text fill="#000000" font-family="sans-serif" font-size="14" lengthAdjust="spacing" textLength="12" x="880" y="106.752">   </text><line style="stroke:#000000;stroke-width:1.0;" x1="875" x2="897" y1="111.8281" y2="111.8281"/><text fill="#000000" font-family="sans-serif" font-size="14" lengthAdjust="spacing" textLength="12" x="880" y="128.3613">   </text><rect fill="none" height="86.4375" rx="5" ry="5" style="stroke:#000000;stroke-width:1.5;" width="22" x="875" y="47"/><rect fill="#F1F1F1" height="21.6094" rx="5" ry="5" style="stroke:#F1F1F1;stroke-width:1.5;" width="192" x="1015" y="10"/><text fill="#000000" font-family="sans-serif" font-size="14" font-weight="bold" lengthAdjust="spacing" textLength="160" x="1020" y="26.5332">phenotypicAbnormality</text><text fill="#000000" font-family="sans-serif" font-size="14" lengthAdjust="spacing" textLength="12" x="1190" y="26.5332">   </text><line style="stroke:#000000;stroke-width:1.0;" x1="1185" x2="1185" y1="10" y2="31.6094"/><rect fill="none" height="21.6094" rx="5" ry="5" style="stroke:#000000;stroke-width:1.5;" width="192" x="1015" y="10"/><rect fill="#F1F1F1" height="21.6094" rx="5" ry="5" style="stroke:#F1F1F1;stroke-width:1.5;" width="143" x="1261" y="10"/><text fill="#000000" font-family="sans-serif" font-size="14" font-weight="bold" lengthAdjust="spacing" textLength="45" x="1266" y="26.5332">termId</text><text fill="#000000" font-family="sans-serif" font-size="14" lengthAdjust="spacing" textLength="78" x="1321" y="26.5332">HP:0001558</text><line style="stroke:#000000;stroke-width:1.0;" x1="1316" x2="1316" y1="10" y2="31.6094"/><rect fill="none" height="21.6094" rx="5" ry="5" style="stroke:#000000;stroke-width:1.5;" width="143" x="1261" y="10"/><rect fill="#F1F1F1" height="21.6094" rx="5" ry="5" style="stroke:#F1F1F1;stroke-width:1.5;" width="192" x="1015" y="50"/><text fill="#000000" font-family="sans-serif" font-size="14" font-weight="bold" lengthAdjust="spacing" textLength="160" x="1020" y="66.5332">phenotypicAbnormality</text><text fill="#000000" font-family="sans-serif" font-size="14" lengthAdjust="spacing" textLength="12" x="1190" y="66.5332">   </text><line style="stroke:#000000;stroke-width:1.0;" x1="1185" x2="1185" y1="50" y2="71.6094"/><rect fill="none" height="21.6094" rx="5" ry="5" style="stroke:#000000;stroke-width:1.5;" width="192" x="1015" y="50"/><rect fill="#F1F1F1" height="21.6094" rx="5" ry="5" style="stroke:#F1F1F1;stroke-width:1.5;" width="143" x="1261" y="50"/><text fill="#000000" font-family="sans-serif" font-size="14" font-weight="bold" lengthAdjust="spacing" textLength="45" x="1266" y="66.5332">termId</text><text fill="#000000" font-family="sans-serif" font-size="14" lengthAdjust="spacing" textLength="78" x="1321" y="66.5332">HP:0031910</text><line style="stroke:#000000;stroke-width:1.0;" x1="1316" x2="1316" y1="50" y2="71.6094"/><rect fill="none" height="21.6094" rx="5" ry="5" style="stroke:#000000;stroke-width:1.5;" width="143" x="1261" y="50"/><rect fill="#F1F1F1" height="21.6094" rx="5" ry="5" style="stroke:#F1F1F1;stroke-width:1.5;" width="192" x="1015" y="90"/><text fill="#000000" font-family="sans-serif" font-size="14" font-weight="bold" lengthAdjust="spacing" textLength="160" x="1020" y="106.5332">phenotypicAbnormality</text><text fill="#000000" font-family="sans-serif" font-size="14" lengthAdjust="spacing" textLength="12" x="1190" y="106.5332">   </text><line style="stroke:#000000;stroke-width:1.0;" x1="1185" x2="1185" y1="90" y2="111.6094"/><rect fill="none" height="21.6094" rx="5" ry="5" style="stroke:#000000;stroke-width:1.5;" width="192" x="1015" y="90"/><rect fill="#F1F1F1" height="21.6094" rx="5" ry="5" style="stroke:#F1F1F1;stroke-width:1.5;" width="143" x="1261" y="90"/><text fill="#000000" font-family="sans-serif" font-size="14" font-weight="bold" lengthAdjust="spacing" textLength="45" x="1266" y="106.5332">termId</text><text fill="#000000" font-family="sans-serif" font-size="14" lengthAdjust="spacing" textLength="78" x="1321" y="106.5332">HP:0012587</text><line style="stroke:#000000;stroke-width:1.0;" x1="1316" x2="1316" y1="90" y2="111.6094"/><rect fill="none" height="21.6094" rx="5" ry="5" style="stroke:#000000;stroke-width:1.5;" width="143" x="1261" y="90"/><rect fill="#F1F1F1" height="21.6094" rx="5" ry="5" style="stroke:#F1F1F1;stroke-width:1.5;" width="192" x="1015" y="130"/><text fill="#000000" font-family="sans-serif" font-size="14" font-weight="bold" lengthAdjust="spacing" textLength="160" x="1020" y="146.5332">phenotypicAbnormality</text><text fill="#000000" font-family="sans-serif" font-size="14" lengthAdjust="spacing" textLength="12" x="1190" y="146.5332">   </text><line style="stroke:#000000;stroke-width:1.0;" x1="1185" x2="1185" y1="130" y2="151.6094"/><rect fill="none" height="21.6094" rx="5" ry="5" style="stroke:#000000;stroke-width:1.5;" width="192" x="1015" y="130"/><rect fill="#F1F1F1" height="21.6094" rx="5" ry="5" style="stroke:#F1F1F1;stroke-width:1.5;" width="143" x="1261" y="130"/><text fill="#000000" font-family="sans-serif" font-size="14" font-weight="bold" lengthAdjust="spacing" textLength="45" x="1266" y="146.5332">termId</text><text fill="#000000" font-family="sans-serif" font-size="14" lengthAdjust="spacing" textLength="78" x="1321" y="146.5332">HP:0001270</text><line style="stroke:#000000;stroke-width:1.0;" x1="1316" x2="1316" y1="130" y2="151.6094"/><rect fill="none" height="21.6094" rx="5" ry="5" style="stroke:#000000;stroke-width:1.5;" width="143" x="1261" y="130"/><rect fill="#F1F1F1" height="21.6094" rx="5" ry="5" style="stroke:#F1F1F1;stroke-width:1.5;" width="22" x="875" y="160"/><text fill="#000000" font-family="sans-serif" font-size="14" lengthAdjust="spacing" textLength="12" x="880" y="176.5332">   </text><rect fill="none" height="21.6094" rx="5" ry="5" style="stroke:#000000;stroke-width:1.5;" width="22" x="875" y="160"/><rect fill="#F1F1F1" height="21.6094" rx="5" ry="5" style="stroke:#F1F1F1;stroke-width:1.5;" width="87" x="1067.5" y="170"/><text fill="#000000" font-family="sans-serif" font-size="14" font-weight="bold" lengthAdjust="spacing" textLength="55" x="1072.5" y="186.5332">disease</text><text fill="#000000" font-family="sans-serif" font-size="14" lengthAdjust="spacing" textLength="12" x="1137.5" y="186.5332">   </text><line style="stroke:#000000;stroke-width:1.0;" x1="1132.5" x2="1132.5" y1="170" y2="191.6094"/><rect fill="none" height="21.6094" rx="5" ry="5" style="stroke:#000000;stroke-width:1.5;" width="87" x="1067.5" y="170"/><rect fill="#F1F1F1" height="21.6094" rx="5" ry="5" style="stroke:#F1F1F1;stroke-width:1.5;" width="177" x="1244" y="170"/><text fill="#000000" font-family="sans-serif" font-size="14" font-weight="bold" lengthAdjust="spacing" textLength="45" x="1249" y="186.5332">termId</text><text fill="#000000" font-family="sans-serif" font-size="14" lengthAdjust="spacing" textLength="112" x="1304" y="186.5332">MONDO:0008029</text><line style="stroke:#000000;stroke-width:1.0;" x1="1299" x2="1299" y1="170" y2="191.6094"/><rect fill="none" height="21.6094" rx="5" ry="5" style="stroke:#000000;stroke-width:1.5;" width="177" x="1244" y="170"/><rect fill="#F1F1F1" height="21.6094" rx="5" ry="5" style="stroke:#F1F1F1;stroke-width:1.5;" width="139" x="586.5" y="200"/><text fill="#000000" font-family="sans-serif" font-size="14" font-weight="bold" lengthAdjust="spacing" textLength="107" x="591.5" y="216.5332">organismTaxon</text><text fill="#000000" font-family="sans-serif" font-size="14" lengthAdjust="spacing" textLength="12" x="708.5" y="216.5332">   </text><line style="stroke:#000000;stroke-width:1.0;" x1="703.5" x2="703.5" y1="200" y2="221.6094"/><rect fill="none" height="21.6094" rx="5" ry="5" style="stroke:#000000;stroke-width:1.5;" width="139" x="586.5" y="200"/><rect fill="#F1F1F1" height="21.6094" rx="5" ry="5" style="stroke:#F1F1F1;stroke-width:1.5;" width="171" x="801.5" y="200"/><text fill="#000000" font-family="sans-serif" font-size="14" font-weight="bold" lengthAdjust="spacing" textLength="45" x="806.5" y="216.5332">termId</text><text fill="#000000" font-family="sans-serif" font-size="14" lengthAdjust="spacing" textLength="106" x="861.5" y="216.5332">NCBITaxon:9606</text><line style="stroke:#000000;stroke-width:1.0;" x1="856.5" x2="856.5" y1="200" y2="221.6094"/><rect fill="none" height="21.6094" rx="5" ry="5" style="stroke:#000000;stroke-width:1.5;" width="171" x="801.5" y="200"/><rect fill="#F1F1F1" height="43.2188" rx="5" ry="5" style="stroke:#F1F1F1;stroke-width:1.5;" width="197" x="319" y="249.5"/><text fill="#000000" font-family="sans-serif" font-size="14" font-weight="bold" lengthAdjust="spacing" textLength="165" x="324" y="266.0332">minimalPublicAttributes</text><text fill="#000000" font-family="sans-serif" font-size="14" lengthAdjust="spacing" textLength="12" x="499" y="266.0332">   </text><line style="stroke:#000000;stroke-width:1.0;" x1="494" x2="494" y1="249.5" y2="271.1094"/><line style="stroke:#000000;stroke-width:1.0;" x1="319" x2="516" y1="271.1094" y2="271.1094"/><text fill="#000000" font-family="sans-serif" font-size="14" font-weight="bold" lengthAdjust="spacing" textLength="139" x="324" y="287.6426">organismDescriptor</text><text fill="#000000" font-family="sans-serif" font-size="14" lengthAdjust="spacing" textLength="12" x="499" y="287.6426">   </text><line style="stroke:#000000;stroke-width:1.0;" x1="494" x2="494" y1="271.1094" y2="292.7188"/><rect fill="none" height="43.2188" rx="5" ry="5" style="stroke:#000000;stroke-width:1.5;" width="197" x="319" y="249.5"/><rect fill="#F1F1F1" height="21.6094" rx="5" ry="5" style="stroke:#F1F1F1;stroke-width:1.5;" width="206" x="553" y="240"/><text fill="#000000" font-family="sans-serif" font-size="14" font-weight="bold" lengthAdjust="spacing" textLength="174" x="558" y="256.5332">phenotypicAbnormalities</text><text fill="#000000" font-family="sans-serif" font-size="14" lengthAdjust="spacing" textLength="12" x="742" y="256.5332">   </text><line style="stroke:#000000;stroke-width:1.0;" x1="737" x2="737" y1="240" y2="261.6094"/><rect fill="none" height="21.6094" rx="5" ry="5" style="stroke:#000000;stroke-width:1.5;" width="206" x="553" y="240"/><rect fill="#F1F1F1" height="21.6094" rx="5" ry="5" style="stroke:#F1F1F1;stroke-width:1.5;" width="22" x="875" y="240"/><text fill="#000000" font-family="sans-serif" font-size="14" lengthAdjust="spacing" textLength="12" x="880" y="256.5332">   </text><rect fill="none" height="21.6094" rx="5" ry="5" style="stroke:#000000;stroke-width:1.5;" width="22" x="875" y="240"/><rect fill="#F1F1F1" height="21.6094" rx="5" ry="5" style="stroke:#F1F1F1;stroke-width:1.5;" width="192" x="1015" y="240"/><text fill="#000000" font-family="sans-serif" font-size="14" font-weight="bold" lengthAdjust="spacing" textLength="160" x="1020" y="256.5332">phenotypicAbnormality</text><text fill="#000000" font-family="sans-serif" font-size="14" lengthAdjust="spacing" textLength="12" x="1190" y="256.5332">   </text><line style="stroke:#000000;stroke-width:1.0;" x1="1185" x2="1185" y1="240" y2="261.6094"/><rect fill="none" height="21.6094" rx="5" ry="5" style="stroke:#000000;stroke-width:1.5;" width="192" x="1015" y="240"/><rect fill="#F1F1F1" height="21.6094" rx="5" ry="5" style="stroke:#F1F1F1;stroke-width:1.5;" width="150" x="1257.5" y="240"/><text fill="#000000" font-family="sans-serif" font-size="14" font-weight="bold" lengthAdjust="spacing" textLength="45" x="1262.5" y="256.5332">termId</text><text fill="#000000" font-family="sans-serif" font-size="14" lengthAdjust="spacing" textLength="85" x="1317.5" y="256.5332">NCIT:C94232</text><line style="stroke:#000000;stroke-width:1.0;" x1="1312.5" x2="1312.5" y1="240" y2="261.6094"/><rect fill="none" height="21.6094" rx="5" ry="5" style="stroke:#000000;stroke-width:1.5;" width="150" x="1257.5" y="240"/><rect fill="#F1F1F1" height="21.6094" rx="5" ry="5" style="stroke:#F1F1F1;stroke-width:1.5;" width="139" x="586.5" y="280"/><text fill="#000000" font-family="sans-serif" font-size="14" font-weight="bold" lengthAdjust="spacing" textLength="107" x="591.5" y="296.5332">organismTaxon</text><text fill="#000000" font-family="sans-serif" font-size="14" lengthAdjust="spacing" textLength="12" x="708.5" y="296.5332">   </text><line style="stroke:#000000;stroke-width:1.0;" x1="703.5" x2="703.5" y1="280" y2="301.6094"/><rect fill="none" height="21.6094" rx="5" ry="5" style="stroke:#000000;stroke-width:1.5;" width="139" x="586.5" y="280"/><rect fill="#F1F1F1" height="21.6094" rx="5" ry="5" style="stroke:#F1F1F1;stroke-width:1.5;" width="171" x="801.5" y="280"/><text fill="#000000" font-family="sans-serif" font-size="14" font-weight="bold" lengthAdjust="spacing" textLength="45" x="806.5" y="296.5332">termId</text><text fill="#000000" font-family="sans-serif" font-size="14" lengthAdjust="spacing" textLength="106" x="861.5" y="296.5332">NCBITaxon:9606</text><line style="stroke:#000000;stroke-width:1.0;" x1="856.5" x2="856.5" y1="280" y2="301.6094"/><rect fill="none" height="21.6094" rx="5" ry="5" style="stroke:#000000;stroke-width:1.5;" width="171" x="801.5" y="280"/><rect fill="#F1F1F1" height="64.8281" rx="5" ry="5" style="stroke:#F1F1F1;stroke-width:1.5;" width="171" x="332" y="329.5"/><text fill="#000000" font-family="sans-serif" font-size="14" font-weight="bold" lengthAdjust="spacing" textLength="139" x="337" y="346.0332">organismDescriptor</text><text fill="#000000" font-family="sans-serif" font-size="14" lengthAdjust="spacing" textLength="12" x="486" y="346.0332">   </text><line style="stroke:#000000;stroke-width:1.0;" x1="481" x2="481" y1="329.5" y2="351.1094"/><line style="stroke:#000000;stroke-width:1.0;" x1="332" x2="503" y1="351.1094" y2="351.1094"/><text fill="#000000" font-family="sans-serif" font-size="14" font-weight="bold" lengthAdjust="spacing" textLength="94" x="337" y="367.6426">sampleStatus</text><text fill="#000000" font-family="sans-serif" font-size="14" lengthAdjust="spacing" textLength="12" x="486" y="367.6426">   </text><line style="stroke:#000000;stroke-width:1.0;" x1="481" x2="481" y1="351.1094" y2="372.7188"/><line style="stroke:#000000;stroke-width:1.0;" x1="332" x2="503" y1="372.7188" y2="372.7188"/><text fill="#000000" font-family="sans-serif" font-size="14" font-weight="bold" lengthAdjust="spacing" textLength="121" x="337" y="389.252">sampleCollection</text><text fill="#000000" font-family="sans-serif" font-size="14" lengthAdjust="spacing" textLength="12" x="486" y="389.252">   </text><line style="stroke:#000000;stroke-width:1.0;" x1="481" x2="481" y1="372.7188" y2="394.3281"/><rect fill="none" height="64.8281" rx="5" ry="5" style="stroke:#000000;stroke-width:1.5;" width="171" x="332" y="329.5"/><rect fill="#F1F1F1" height="21.6094" rx="5" ry="5" style="stroke:#F1F1F1;stroke-width:1.5;" width="139" x="586.5" y="320"/><text fill="#000000" font-family="sans-serif" font-size="14" font-weight="bold" lengthAdjust="spacing" textLength="107" x="591.5" y="336.5332">organismTaxon</text><text fill="#000000" font-family="sans-serif" font-size="14" lengthAdjust="spacing" textLength="12" x="708.5" y="336.5332">   </text><line style="stroke:#000000;stroke-width:1.0;" x1="703.5" x2="703.5" y1="320" y2="341.6094"/><rect fill="none" height="21.6094" rx="5" ry="5" style="stroke:#000000;stroke-width:1.5;" width="139" x="586.5" y="320"/><rect fill="#F1F1F1" height="21.6094" rx="5" ry="5" style="stroke:#F1F1F1;stroke-width:1.5;" width="171" x="801.5" y="320"/><text fill="#000000" font-family="sans-serif" font-size="14" font-weight="bold" lengthAdjust="spacing" textLength="45" x="806.5" y="336.5332">termId</text><text fill="#000000" font-family="sans-serif" font-size="14" lengthAdjust="spacing" textLength="106" x="861.5" y="336.5332">NCBITaxon:9606</text><line style="stroke:#000000;stroke-width:1.0;" x1="856.5" x2="856.5" y1="320" y2="341.6094"/><rect fill="none" height="21.6094" rx="5" ry="5" style="stroke:#000000;stroke-width:1.5;" width="171" x="801.5" y="320"/><rect fill="#F1F1F1" height="21.6094" rx="5" ry="5" style="stroke:#F1F1F1;stroke-width:1.5;" width="22" x="644" y="360"/><text fill="#000000" font-family="sans-serif" font-size="14" lengthAdjust="spacing" textLength="12" x="649" y="376.5332">   </text><rect fill="none" height="21.6094" rx="5" ry="5" style="stroke:#000000;stroke-width:1.5;" width="22" x="644" y="360"/><rect fill="#F1F1F1" height="21.6094" rx="5" ry="5" style="stroke:#F1F1F1;stroke-width:1.5;" width="180" x="797" y="360"/><text fill="#000000" font-family="sans-serif" font-size="14" font-weight="bold" lengthAdjust="spacing" textLength="148" x="802" y="376.5332">conditionUnderStudy</text><text fill="#000000" font-family="sans-serif" font-size="14" lengthAdjust="spacing" textLength="12" x="960" y="376.5332">   </text><line style="stroke:#000000;stroke-width:1.0;" x1="955" x2="955" y1="360" y2="381.6094"/><rect fill="none" height="21.6094" rx="5" ry="5" style="stroke:#000000;stroke-width:1.5;" width="180" x="797" y="360"/><rect fill="#F1F1F1" height="21.6094" rx="5" ry="5" style="stroke:#F1F1F1;stroke-width:1.5;" width="177" x="1022.5" y="360"/><text fill="#000000" font-family="sans-serif" font-size="14" font-weight="bold" lengthAdjust="spacing" textLength="45" x="1027.5" y="376.5332">termId</text><text fill="#000000" font-family="sans-serif" font-size="14" lengthAdjust="spacing" textLength="112" x="1082.5" y="376.5332">MONDO:0008029</text><line style="stroke:#000000;stroke-width:1.0;" x1="1077.5" x2="1077.5" y1="360" y2="381.6094"/><rect fill="none" height="21.6094" rx="5" ry="5" style="stroke:#000000;stroke-width:1.5;" width="177" x="1022.5" y="360"/><rect fill="#F1F1F1" height="21.6094" rx="5" ry="5" style="stroke:#F1F1F1;stroke-width:1.5;" width="122" x="595" y="400"/><text fill="#000000" font-family="sans-serif" font-size="14" font-weight="bold" lengthAdjust="spacing" textLength="90" x="600" y="416.5332">samplingSite</text><text fill="#000000" font-family="sans-serif" font-size="14" lengthAdjust="spacing" textLength="12" x="700" y="416.5332">   </text><line style="stroke:#000000;stroke-width:1.0;" x1="695" x2="695" y1="400" y2="421.6094"/><rect fill="none" height="21.6094" rx="5" ry="5" style="stroke:#000000;stroke-width:1.5;" width="122" x="595" y="400"/><rect fill="#F1F1F1" height="21.6094" rx="5" ry="5" style="stroke:#F1F1F1;stroke-width:1.5;" width="182" x="796" y="400"/><text fill="#000000" font-family="sans-serif" font-size="14" font-weight="bold" lengthAdjust="spacing" textLength="45" x="801" y="416.5332">termId</text><text fill="#000000" font-family="sans-serif" font-size="14" lengthAdjust="spacing" textLength="117" x="856" y="416.5332">UBERON:0001414</text><line style="stroke:#000000;stroke-width:1.0;" x1="851" x2="851" y1="400" y2="421.6094"/><rect fill="none" height="21.6094" rx="5" ry="5" style="stroke:#000000;stroke-width:1.5;" width="182" x="796" y="400"/><path d="M1195,21 L1208,21 C1222.6658,21 1238.3073,21 1253.3666,21 " fill="none" style="stroke:#000000;stroke-width:1.0;stroke-dasharray:3.0,3.0;"/><path d="M1253.3666,24.1255 L1255.7107,21 L1253.3666,17.8745 L1261.1803,21 L1253.3666,24.1255 " fill="#000000" style="stroke:#000000;stroke-width:1.0;"/><ellipse cx="1195" cy="21" fill="#000000" rx="3" ry="3" style="stroke:#000000;stroke-width:1.0;"/><path d="M887.5,57 L900.5,57 C928.9694,57 999.1271,43.9843 1050.5467,33.6053 " fill="none" style="stroke:#000000;stroke-width:1.0;stroke-dasharray:3.0,3.0;"/><path d="M1051.1508,36.5826 L1052.7797,33.1522 L1049.9426,30.6279 L1057.9901,32.0949 L1051.1508,36.5826 " fill="#000000" style="stroke:#000000;stroke-width:1.0;"/><ellipse cx="887.5" cy="57" fill="#000000" rx="3" ry="3" style="stroke:#000000;stroke-width:1.0;"/><path d="M1195,61 L1208,61 C1222.6658,61 1238.3073,61 1253.3666,61 " fill="none" style="stroke:#000000;stroke-width:1.0;stroke-dasharray:3.0,3.0;"/><path d="M1253.3666,64.1255 L1255.7107,61 L1253.3666,57.8745 L1261.1803,61 L1253.3666,64.1255 " fill="#000000" style="stroke:#000000;stroke-width:1.0;"/><ellipse cx="1195" cy="61" fill="#000000" rx="3" ry="3" style="stroke:#000000;stroke-width:1.0;"/><path d="M887.5,79 L900.5,79 C937.6513,79 978.3649,76.1688 1013.9719,72.7521 " fill="none" style="stroke:#000000;stroke-width:1.0;stroke-dasharray:3.0,3.0;"/><path d="M1014.2667,75.7591 L1016.2271,72.531 L1013.677,69.7451 L1021.4894,72.015 L1014.2667,75.7591 " fill="#000000" style="stroke:#000000;stroke-width:1.0;"/><ellipse cx="887.5" cy="79" fill="#000000" rx="3" ry="3" style="stroke:#000000;stroke-width:1.0;"/><path d="M1195,101 L1208,101 C1222.6658,101 1238.3073,101 1253.3666,101 " fill="none" style="stroke:#000000;stroke-width:1.0;stroke-dasharray:3.0,3.0;"/><path d="M1253.3666,104.1255 L1255.7107,101 L1253.3666,97.8745 L1261.1803,101 L1253.3666,104.1255 " fill="#000000" style="stroke:#000000;stroke-width:1.0;"/><ellipse cx="1195" cy="101" fill="#000000" rx="3" ry="3" style="stroke:#000000;stroke-width:1.0;"/><path d="M887.5,101 L900.5,101 C935.4117,101 973.5881,101 1007.7022,101 " fill="none" style="stroke:#000000;stroke-width:1.0;stroke-dasharray:3.0,3.0;"/><path d="M1007.7022,104.0669 L1010.0024,101 L1007.7022,97.9331 L1015.3695,101 L1007.7022,104.0669 " fill="#000000" style="stroke:#000000;stroke-width:1.0;"/><ellipse cx="887.5" cy="101" fill="#000000" rx="3" ry="3" style="stroke:#000000;stroke-width:1.0;"/><path d="M1195,141 L1208,141 C1222.6658,141 1238.3073,141 1253.3666,141 " fill="none" style="stroke:#000000;stroke-width:1.0;stroke-dasharray:3.0,3.0;"/><path d="M1253.3666,144.1255 L1255.7107,141 L1253.3666,137.8745 L1261.1803,141 L1253.3666,144.1255 " fill="#000000" style="stroke:#000000;stroke-width:1.0;"/><ellipse cx="1195" cy="141" fill="#000000" rx="3" ry="3" style="stroke:#000000;stroke-width:1.0;"/><path d="M887.5,122 L900.5,122 C939.5464,122 982.5111,125.2984 1019.3506,129.1466 " fill="none" style="stroke:#000000;stroke-width:1.0;stroke-dasharray:3.0,3.0;"/><path d="M1019.0192,132.2524 L1021.6799,129.3952 L1019.682,126.0408 L1027.1151,129.9751 L1019.0192,132.2524 " fill="#000000" style="stroke:#000000;stroke-width:1.0;"/><ellipse cx="887.5" cy="122" fill="#000000" rx="3" ry="3" style="stroke:#000000;stroke-width:1.0;"/><path d="M747,149 L760,149 C802.529,149 846.1985,121.2715 869.4573,103.8329 " fill="none" style="stroke:#000000;stroke-width:1.0;stroke-dasharray:3.0,3.0;"/><path d="M871.3029,106.2333 L871.2576,102.4486 L867.6116,101.4325 L875.4583,99.2188 L871.3029,106.2333 " fill="#000000" style="stroke:#000000;stroke-width:1.0;"/><ellipse cx="747" cy="149" fill="#000000" rx="3" ry="3" style="stroke:#000000;stroke-width:1.0;"/><path d="M1143.5,181 L1156.5,181 C1182.4288,181 1210.5124,181 1236.453,181 " fill="none" style="stroke:#000000;stroke-width:1.0;stroke-dasharray:3.0,3.0;"/><path d="M1236.453,184.0461 L1238.7375,181 L1236.453,177.9539 L1244.0682,181 L1236.453,184.0461 " fill="#000000" style="stroke:#000000;stroke-width:1.0;"/><ellipse cx="1143.5" cy="181" fill="#000000" rx="3" ry="3" style="stroke:#000000;stroke-width:1.0;"/><path d="M886.8201,170.9695 L899.8071,171.5519 C929.8316,172.8983 1008.1957,176.4124 1060.4236,178.7544 " fill="none" style="stroke:#000000;stroke-width:1.0;stroke-dasharray:3.0,3.0;"/><path d="M1060.2889,181.7573 L1062.6757,178.8554 L1060.5582,175.7515 L1067.9308,179.0911 L1060.2889,181.7573 " fill="#000000" style="stroke:#000000;stroke-width:1.0;"/><ellipse cx="886.8201" cy="170.9695" fill="#000000" rx="3" ry="3" style="stroke:#000000;stroke-width:1.0;"/><path d="M747,171 L760,171 C798.2787,171 843.073,171 867.7664,171 " fill="none" style="stroke:#000000;stroke-width:1.0;stroke-dasharray:3.0,3.0;"/><path d="M867.7664,174.0261 L870.0359,171 L867.7664,167.9739 L875.3316,171 L867.7664,174.0261 " fill="#000000" style="stroke:#000000;stroke-width:1.0;"/><ellipse cx="747" cy="171" fill="#000000" rx="3" ry="3" style="stroke:#000000;stroke-width:1.0;"/><path d="M504,189 L517,189 C535.2714,189 554.6164,186.5522 572.8689,183.079 " fill="none" style="stroke:#000000;stroke-width:1.0;stroke-dasharray:3.0,3.0;"/><path d="M573.4878,186.1787 L575.1937,182.6148 L572.25,179.9792 L580.6182,181.5318 L573.4878,186.1787 " fill="#000000" style="stroke:#000000;stroke-width:1.0;"/><ellipse cx="504" cy="189" fill="#000000" rx="3" ry="3" style="stroke:#000000;stroke-width:1.0;"/><path d="M714.5,211 L727.5,211 C749.1062,211 772.3639,211 794.2434,211 " fill="none" style="stroke:#000000;stroke-width:1.0;stroke-dasharray:3.0,3.0;"/><path d="M794.2434,214.0706 L796.5464,211 L794.2434,207.9294 L801.92,211 L794.2434,214.0706 " fill="#000000" style="stroke:#000000;stroke-width:1.0;"/><ellipse cx="714.5" cy="211" fill="#000000" rx="3" ry="3" style="stroke:#000000;stroke-width:1.0;"/><path d="M504,211 L517,211 C537.1486,211 558.946,211 579.154,211 " fill="none" style="stroke:#000000;stroke-width:1.0;stroke-dasharray:3.0,3.0;"/><path d="M579.154,214.0641 L581.4522,211 L579.154,207.9359 L586.8144,211 L579.154,214.0641 " fill="#000000" style="stroke:#000000;stroke-width:1.0;"/><ellipse cx="504" cy="211" fill="#000000" rx="3" ry="3" style="stroke:#000000;stroke-width:1.0;"/><path d="M270,250 L283,250 C291.0508,250 325.3356,237.1675 357.2075,224.5045 " fill="none" style="stroke:#000000;stroke-width:1.0;stroke-dasharray:3.0,3.0;"/><path d="M358.3533,227.3756 L359.3608,223.6451 L356.0617,221.6334 L364.3852,221.6399 L358.3533,227.3756 " fill="#000000" style="stroke:#000000;stroke-width:1.0;"/><ellipse cx="270" cy="250" fill="#000000" rx="3" ry="3" style="stroke:#000000;stroke-width:1.0;"/><path d="M1195,251 L1208,251 C1221.623,251 1236.088,251 1250.1461,251 " fill="none" style="stroke:#000000;stroke-width:1.0;stroke-dasharray:3.0,3.0;"/><path d="M1250.1461,254.1041 L1252.4742,251 L1250.1461,247.8959 L1257.9065,251 L1250.1461,254.1041 " fill="#000000" style="stroke:#000000;stroke-width:1.0;"/><ellipse cx="1195" cy="251" fill="#000000" rx="3" ry="3" style="stroke:#000000;stroke-width:1.0;"/><path d="M886.8071,251 L899.8071,251 C920.695,251 964.9791,251 1007.5822,251 " fill="none" style="stroke:#000000;stroke-width:1.0;stroke-dasharray:3.0,3.0;"/><path d="M1007.5822,254.0601 L1009.8773,251 L1007.5822,247.9399 L1015.2324,251 L1007.5822,254.0601 " fill="#000000" style="stroke:#000000;stroke-width:1.0;"/><ellipse cx="886.8071" cy="251" fill="#000000" rx="3" ry="3" style="stroke:#000000;stroke-width:1.0;"/><path d="M747,251 L760,251 C798.2787,251 843.073,251 867.7664,251 " fill="none" style="stroke:#000000;stroke-width:1.0;stroke-dasharray:3.0,3.0;"/><path d="M867.7664,254.0261 L870.0359,251 L867.7664,247.9739 L875.3316,251 L867.7664,254.0261 " fill="#000000" style="stroke:#000000;stroke-width:1.0;"/><ellipse cx="747" cy="251" fill="#000000" rx="3" ry="3" style="stroke:#000000;stroke-width:1.0;"/><path d="M504,260 L517,260 C526.3164,260 535.978,259.7947 545.6679,259.4461 " fill="none" style="stroke:#000000;stroke-width:1.0;stroke-dasharray:3.0,3.0;"/><path d="M545.7915,262.5546 L547.9992,259.3534 L545.5442,256.3377 L553.439,259.137 L545.7915,262.5546 " fill="#000000" style="stroke:#000000;stroke-width:1.0;"/><ellipse cx="504" cy="260" fill="#000000" rx="3" ry="3" style="stroke:#000000;stroke-width:1.0;"/><path d="M714.5,291 L727.5,291 C749.1062,291 772.3639,291 794.2434,291 " fill="none" style="stroke:#000000;stroke-width:1.0;stroke-dasharray:3.0,3.0;"/><path d="M794.2434,294.0706 L796.5464,291 L794.2434,287.9294 L801.92,291 L794.2434,294.0706 " fill="#000000" style="stroke:#000000;stroke-width:1.0;"/><ellipse cx="714.5" cy="291" fill="#000000" rx="3" ry="3" style="stroke:#000000;stroke-width:1.0;"/><path d="M504,282 L517,282 C537.1911,282 559.0032,282.9643 579.2117,284.2615 " fill="none" style="stroke:#000000;stroke-width:1.0;stroke-dasharray:3.0,3.0;"/><path d="M579.0069,287.3255 L581.5097,284.4152 L579.4166,281.1976 L586.8716,284.7737 L579.0069,287.3255 " fill="#000000" style="stroke:#000000;stroke-width:1.0;"/><ellipse cx="504" cy="282" fill="#000000" rx="3" ry="3" style="stroke:#000000;stroke-width:1.0;"/><path d="M270,271 L283,271 C292.2701,271 301.901,271 311.5556,271 " fill="none" style="stroke:#000000;stroke-width:1.0;stroke-dasharray:3.0,3.0;"/><path d="M311.5556,274.0966 L313.8781,271 L311.5556,267.9034 L319.2972,271 L311.5556,274.0966 " fill="#000000" style="stroke:#000000;stroke-width:1.0;"/><ellipse cx="270" cy="271" fill="#000000" rx="3" ry="3" style="stroke:#000000;stroke-width:1.0;"/><path d="M714.5,331 L727.5,331 C749.1062,331 772.3639,331 794.2434,331 " fill="none" style="stroke:#000000;stroke-width:1.0;stroke-dasharray:3.0,3.0;"/><path d="M794.2434,334.0706 L796.5464,331 L794.2434,327.9294 L801.92,331 L794.2434,334.0706 " fill="#000000" style="stroke:#000000;stroke-width:1.0;"/><ellipse cx="714.5" cy="331" fill="#000000" rx="3" ry="3" style="stroke:#000000;stroke-width:1.0;"/><path d="M492,340 L505,340 C529.2095,340 555.5705,338.8252 579.3683,337.3245 " fill="none" style="stroke:#000000;stroke-width:1.0;stroke-dasharray:3.0,3.0;"/><path d="M579.5674,340.3768 L581.6575,337.1753 L579.1693,334.2723 L586.9988,336.8269 L579.5674,340.3768 " fill="#000000" style="stroke:#000000;stroke-width:1.0;"/><ellipse cx="492" cy="340" fill="#000000" rx="3" ry="3" style="stroke:#000000;stroke-width:1.0;"/><path d="M965.5,371 L978.5,371 C990.3612,371 1002.8219,371 1015.1548,371 " fill="none" style="stroke:#000000;stroke-width:1.0;stroke-dasharray:3.0,3.0;"/><path d="M1015.1548,374.0624 L1017.4516,371 L1015.1548,367.9376 L1022.8108,371 L1015.1548,374.0624 " fill="#000000" style="stroke:#000000;stroke-width:1.0;"/><ellipse cx="965.5" cy="371" fill="#000000" rx="3" ry="3" style="stroke:#000000;stroke-width:1.0;"/><path d="M655.542,371 L668.542,371 C691.3096,371 742.6178,371 789.7354,371 " fill="none" style="stroke:#000000;stroke-width:1.0;stroke-dasharray:3.0,3.0;"/><path d="M789.7354,374.0084 L791.9917,371 L789.7354,367.9916 L797.2564,371 L789.7354,374.0084 " fill="#000000" style="stroke:#000000;stroke-width:1.0;"/><ellipse cx="655.542" cy="371" fill="#000000" rx="3" ry="3" style="stroke:#000000;stroke-width:1.0;"/><path d="M492,361 L505,361 C552.4285,361 608.0799,366.0056 636.5778,368.9339 " fill="none" style="stroke:#000000;stroke-width:1.0;stroke-dasharray:3.0,3.0;"/><path d="M636.258,371.9785 L638.8613,369.1738 L636.8977,365.8893 L644.1893,369.7335 L636.258,371.9785 " fill="#000000" style="stroke:#000000;stroke-width:1.0;"/><ellipse cx="492" cy="361" fill="#000000" rx="3" ry="3" style="stroke:#000000;stroke-width:1.0;"/><path d="M705.5,411 L718.5,411 C741.1668,411 765.5539,411 788.5279,411 " fill="none" style="stroke:#000000;stroke-width:1.0;stroke-dasharray:3.0,3.0;"/><path d="M788.5279,414.093 L790.8477,411 L788.5279,407.907 L796.2604,411 L788.5279,414.093 " fill="#000000" style="stroke:#000000;stroke-width:1.0;"/><ellipse cx="705.5" cy="411" fill="#000000" rx="3" ry="3" style="stroke:#000000;stroke-width:1.0;"/><path d="M492,384 L505,384 C513.8908,384 554.6931,391.3944 591.5719,398.4439 " fill="none" style="stroke:#000000;stroke-width:1.0;stroke-dasharray:3.0,3.0;"/><path d="M590.9734,401.5627 L593.911,398.8928 L592.1704,395.3251 L599.369,399.9402 L590.9734,401.5627 " fill="#000000" style="stroke:#000000;stroke-width:1.0;"/><ellipse cx="492" cy="384" fill="#000000" rx="3" ry="3" style="stroke:#000000;stroke-width:1.0;"/><path d="M270,294 L283,294 C298.8797,294 329.9599,309.3779 358.1922,325.5079 " fill="none" style="stroke:#000000;stroke-width:1.0;stroke-dasharray:3.0,3.0;"/><path d="M356.6377,328.1982 L360.21,326.6738 L359.7467,322.8175 L364.9181,329.3942 L356.6377,328.1982 " fill="#000000" style="stroke:#000000;stroke-width:1.0;"/><ellipse cx="270" cy="294" fill="#000000" rx="3" ry="3" style="stroke:#000000;stroke-width:1.0;"/><path d="M209,272 L222,272 C231.374,272 241.7885,272 250.4714,272 " fill="none" style="stroke:#000000;stroke-width:1.0;stroke-dasharray:3.0,3.0;"/><path d="M250.4714,275.0815 L252.7825,272 L250.4714,268.9185 L258.1751,272 L250.4714,275.0815 " fill="#000000" style="stroke:#000000;stroke-width:1.0;"/><ellipse cx="209" cy="272" fill="#000000" rx="3" ry="3" style="stroke:#000000;stroke-width:1.0;"/><path d="M60,272 L73,272 C82.2756,272 92.0801,272 101.6897,272 " fill="none" style="stroke:#000000;stroke-width:1.0;stroke-dasharray:3.0,3.0;"/><path d="M101.6897,275.0604 L103.985,272 L101.6897,268.9396 L109.3408,272 L101.6897,275.0604 " fill="#000000" style="stroke:#000000;stroke-width:1.0;"/><ellipse cx="60" cy="272" fill="#000000" rx="3" ry="3" style="stroke:#000000;stroke-width:1.0;"/><!--SRC=[xPPHRzem4CVV_IciFBNIMYM1q2HFBQ5ZC0AeWRvKVJ29nrmbPsGxQAZATvy9wxPi2QLiqjPfVhFl_fVxsPUpBwKYGZr83WWz8go7aH1531_lPkKANppGM5q9GJRQSFVLi1sFbLdfdZ5W6Kcd-I9byPLIWYroHMKbPaMm-aY1gyrAUo-02wrbYfM2krf1_NUV3RbfpA0YLLHaWqJx6k-clccQbkEunbvPqMWjtlnvW9RbMUPh1h1inxrupG2QuEBu4wYrtDTZ6GcJbCXV-tU-n7WfQZWPzoPRMjUqlTzCYmuuLeEB9G4cinwLiM0hnKLpotdodP5F7FQIVaSu3hg3Kk1x7RDJZ_WpG7NbXyJ_vVOv3WOpF_3QTil-Nmv7byFVYb6puv9agvH6YgYykVhsv1HpI7JfSfX3GaMaykJvcdjv0oeE9Bnl90nucke74TkpnpjF1ik8ANheISoxrpUJSNbXjAtsaGM5gdz9WGfqII7PFV6cAG4r3qTuJONK-MFht3Rjrhbr4kM0XmImxM7BzXtNTpgu7yxmrdoAJlhJ4POy5p75-dhOzIIjFqL3iYRu9WV5CkhZoOh2iFV-QG5Vmve93Xa5XOQtuJU7JlkionIEgD2PuDiGzUW7agTAAsAUw7tpyNpszin58mBBd2nrR0eeu3gksFYut_qC]--></g></svg>